<svg id="Camada_1" data-name="Camada 1" xmlns="http://www.w3.org/2000/svg" viewBox="0 0 967.19 1023.53"><defs><style>.cls-1{fill:#cf2a39;}.cls-2{fill:#c1293b;}.cls-3{fill:#ddc045;}.cls-4{fill:#efd04d;}.cls-5{fill:#fff;}</style></defs><title>homemdeferro</title><path class="cls-1" d="M877.29,879.55l1.37,26-4.07,23.68c-1.66,5.49-3.9,12.34-6.86,20-11.28,29.34-18.53,48.22-30.07,50.56-13.42,2.72-32-17.07-45.09-46.46L747.47,926a642,642,0,0,1-88.82-157.15l-1.11-.6c4.22-7.73,7.56-14.59,10.06-20.14l.61.25q21.62-11.77,98.39,77.89l60.13,35.53s0-31.43,15-5.47c-.79-6-1.58-12-2.38-18l2.49-.79C854.2,876.83,877.29,879.55,877.29,879.55Z" transform="translate(-6.81 -14.54)"/><path class="cls-2" d="M874.59,929.2l4.07-23.68-1.37-26s-23.09-2.72-35.42-42c0-.11-.07-.24-.11-.36l-12.3-39.63H852.7V774.33C891,757.93,921,771.6,921,771.6v5.46l24.6,35.53v4.1l9.56,19.13v4.1l-10.93,10.94,15,19.13-1.36,6.83c24.6,41,13.66,103.86,13.66,103.86-16.4,15-67,4.1-67,4.1,0-20.5-28.69-60.13-28.69-60.13C875.53,926,875.09,927.56,874.59,929.2Z" transform="translate(-6.81 -14.54)"/><path class="cls-1" d="M763.87,633.58c1.28.57,2.72,2,4.28,4.18-16.24,35.61-46.64-11-46.64-11l-7.6,16.4-19.73-28.69,4.66-8,14.47-24.8s-7.79-23.23,2.94-54l-1.57,10.25c31.43,34.16,26,47.83,26,47.83,19.13,31.43,13.66,36.89,13.66,36.89C766.6,624,763.87,633.58,763.87,633.58Z" transform="translate(-6.81 -14.54)"/><path class="cls-1" d="M745.14,422.13l-4.73,68.34h0c-2.35,10.24-23,29.68-23,29.68s-56.11,48.78-127.13-5.67c1.64-5.91,2.77-9.36,2.77-9.36l-1.19-.71-19.3-32.08,13.66-61.5,15-12.3,15-50.56-10.93-15,9.57-17.77,2.77-1.87,72.39-48.69,7.53,3.82h0c1.39,3.69,2,5.75,2,5.75C759.77,322,737.91,419,737.91,419Z" transform="translate(-6.81 -14.54)"/><path class="cls-3" d="M839.38,838.34c.8,6,1.59,12,2.38,18-15-26-15,5.47-15,5.47L766.6,826.26q-76.79-89.65-98.39-77.89l-.61-.25c4.17-9.2,6.08-14.79,6.08-14.79,17.76-19.13,20.5-61.49,20.5-61.49V654.07h-1.37l-8.2,5.47h-2.73v-5.47l2.73-2.73c-4.1-23.23,14.23-44.89,14.23-44.89l-4.66,8,19.73,28.69,7.6-16.4s30.4,46.63,46.64,11c13.4,18.53,35.35,88.74,35.35,88.74l-1.37,4.1v5.47c10.55,14.61,18.21,33.55,22.69,46.53l4.58,14.73.06.23,12.3,39.63c0,.12.07.25.11.36Z" transform="translate(-6.81 -14.54)"/><path class="cls-4" d="M639.58,178.66c36,37.55,52.66,75.62,58,89.77h0l-7.53-3.82L617.69,313.3,608.89,285l-.8-2.58,2.73-8.2L599.23,168.6c1.37,3.59,2,5.82,2,5.82Z" transform="translate(-6.81 -14.54)"/><path class="cls-2" d="M552.77,79.38l0-.27c65,10.7,70.31,78.91,70.31,78.91,13.66,8.2,15,19.13,15,19.13.49.51,1,1,1.43,1.51l-38.33-4.24s-.65-2.23-2-5.82c-9.09-23.94-49.85-108.72-140.75-4-6-10.26-4.16-23.51-2.87-29.44C482.83,72.94,549.43,79,552.77,79.38Z" transform="translate(-6.81 -14.54)"/><path class="cls-2" d="M553.42,814l-2.67-70.16,13.85-17.9,17.52-22.63a17.52,17.52,0,0,1-1.45-5.43c-1.35-10.12,1.45-26,1.45-26l-1.06-.77L589,651.34c-16.63-30.77-11.5-78.23-4.94-110.69,2.18-10.77,4.52-19.87,6.27-26.17,71,54.45,127.13,5.67,127.13,5.67l-1.16,7.52c-10.73,30.75-2.94,54-2.94,54l-14.47,24.8s-18.33,21.66-14.23,44.89l-2.73,2.73v5.47h2.73l8.2-5.47h1.37v17.77s-2.74,42.36-20.5,61.49c0,0-1.91,5.59-6.08,14.79-2.5,5.55-5.84,12.41-10.06,20.14a314,314,0,0,1-46.72,64.83S586.22,842.66,553.42,814Z" transform="translate(-6.81 -14.54)"/><path class="cls-1" d="M460.5,167.59a22.88,22.88,0,0,1-2-3c90.9-104.74,131.66-20,140.75,4l11.59,105.58-2.73,8.2.8,2.58h0L582.12,337l-56,10.93s-2.76-4.1-7-10.58l8.35-5.82,42.36-5.46,9.57,1.36,10.93-17.76-4.06-7.11-1.41-2.46v-8.2l15-57.39-9.57-19.13-9.57-58.76-34.16-10.94-6.83,58.77L516.53,210l-17.77-54.66-35.53,23.23-2.42.23A89,89,0,0,1,460.5,167.59Z" transform="translate(-6.81 -14.54)"/><path class="cls-4" d="M590.32,215.42l9.57,19.13-15,57.39v8.2l1.41,2.46L578,313.81l-8.2-2.73-43.73,5.46L520.63,322l-9.49-8.3-1.44-1.27v-9.56l-29.3-30.52q-1.48-3-2.59-5.64l-.91-37.64-13.67-50.56,35.53-23.23L516.53,210l23.23-5.46,6.83-58.77,34.16,10.94Zm-7,29.65-3.93-6.23-28.22,5.21,1,5.38s19.1.06,20.82.25c-.07,0,0,.08.07,0s.07,0-.07,0C573.68,249.16,583.32,245.07,583.32,245.07Zm-62.56,7.37-1-5.37-28.22,5.2-1.45,7.22s10.45.38,11.29.63c-.13.07-.14.09,0,.08s.12,0,0-.08C502.94,259.31,520.76,252.44,520.76,252.44Z" transform="translate(-6.81 -14.54)"/><path class="cls-4" d="M591.86,504.41l1.19.71s-1.13,3.45-2.77,9.36c-1.75,6.3-4.09,15.4-6.27,26.17H569.82c-32.79-10.93-63.4-45.79-63.4-45.79C524.92,492.18,565.14,488.79,591.86,504.41Z" transform="translate(-6.81 -14.54)"/><path class="cls-3" d="M586.26,302.6l4.06,7.11-10.93,17.76-9.57-1.36-42.36,5.46-8.35,5.82c-2.57-3.92-5.67-8.73-9-14l1-9.56.08-.1,9.49,8.3,5.46-5.47,43.73-5.46,8.2,2.73Z" transform="translate(-6.81 -14.54)"/><path class="cls-5" d="M579.39,238.84l3.93,6.23s-9.64,4.09-10.33,4.61c-1.72-.19-20.82-.25-20.82-.25l-1-5.38Z" transform="translate(-6.81 -14.54)"/><path class="cls-4" d="M582.12,703.27,564.6,725.9c-.2-2.32-.86-12.83,6.59-21.26a26.35,26.35,0,0,1,9.48-6.8A17.52,17.52,0,0,0,582.12,703.27Z" transform="translate(-6.81 -14.54)"/><path class="cls-1" d="M493.3,990.24c-5.47-8.2,2.05-61,2.05-61l2-1.82,15.86-36.7,0,0,27.85-33,60.12,19.13.93,36.36.07,0c-.33.63-.67,1.25-1,1.86l-5.46,50.56-7,24c-7,14.41-14.87,19.74-14.87,19.74C520.63,1016.21,493.3,990.24,493.3,990.24Z" transform="translate(-6.81 -14.54)"/><path class="cls-4" d="M550.75,743.8,553.42,814c32.8,28.7,57.4,19.13,57.4,19.13a314,314,0,0,0,46.72-64.83l1.11.6a648.33,648.33,0,0,1-56.4,144.36l-.07,0-.93-36.36-60.12-19.13-27.85,33,6-13.84c-2.73-16.4,30.06-131.19,30.06-131.19Z" transform="translate(-6.81 -14.54)"/><path class="cls-5" d="M519.77,247.07l1,5.37s-17.82,6.87-19.37,7.68c-.84-.25-11.29-.63-11.29-.63l1.45-7.22Z" transform="translate(-6.81 -14.54)"/><polygon class="cls-1" points="502.88 297.9 504.33 299.18 504.25 299.27 503.27 308.84 473.59 257.82 502.88 288.34 502.88 297.9"/><path class="cls-1" d="M480.4,272.36l29.68,51C499.92,307.37,487.41,286.86,480.4,272.36Z" transform="translate(-6.81 -14.54)"/><path class="cls-2" d="M495.35,929.2s-7.52,52.84-2.05,61c0,0,27.33,26,80.62,19.13,0,0,7.87-5.33,14.87-19.74l-2.57,8.81,1.37,31.43-23.23,1.37-1.37,6.83H489.2l-12.3-1.37-2.73-5.46,1.36-21.87-2.73-54.66v-5.46Z" transform="translate(-6.81 -14.54)"/><path class="cls-5" d="M487.61,425.13c3.09,14.77,1.12,27.68-4.43,28.84s-12.54-9.86-15.63-24.64-1.12-27.69,4.42-28.86S484.51,410.35,487.61,425.13Z" transform="translate(-6.81 -14.54)"/><path class="cls-2" d="M472.51,464.56c-56.41-71.85,3-199.95,3-199.95L475,258a37.38,37.38,0,0,0,2.78,8.69q1.11,2.63,2.59,5.64c7,14.5,19.52,35,29.68,51,3.36,5.29,6.46,10.1,9,14,4.22,6.48,7,10.58,7,10.58l56-10.93L608.88,285h0l8.8,28.34-2.77,1.87-9.57,17.77,10.93,15-15,50.56-15,12.3-13.66,61.5,19.3,32.08c-26.72-15.62-66.94-12.23-85.44-9.55-6,.87-9.69,1.67-9.95,1.72h0l-21.18-28.33.26,0C474.49,467,473.48,465.81,472.51,464.56ZM482.77,455c6.81-1.44,9.49-16.11,6-32.8s-11.86-29.05-18.67-27.62-9.49,16.12-6,32.79S476,456.42,482.77,455Z" transform="translate(-6.81 -14.54)"/><path class="cls-1" d="M483.18,454c5.55-1.16,7.52-14.07,4.43-28.84S477.5,399.31,472,400.47s-7.52,14.09-4.42,28.86S477.65,455.14,483.18,454Zm-.41,1c-6.81,1.42-15.16-10.95-18.68-27.63s-.8-31.36,6-32.79,15.17,10.94,18.67,27.62S489.58,453.56,482.77,455Z" transform="translate(-6.81 -14.54)"/><path class="cls-1" d="M463.23,178.52l13.67,50.56.91,37.64A37.38,37.38,0,0,1,475,258c0-.29-.06-.55-.07-.8l-.79-10.38-5.47-38.26a91.13,91.13,0,0,1-6.83-21.87c-.5-2.79-.84-5.44-1.06-8Z" transform="translate(-6.81 -14.54)"/><path class="cls-1" d="M464.89,48.07c1.65-7.45-147.27-14.18-147.27-14.18v0A211,211,0,0,0,350,20a5.93,5.93,0,0,1-.15,1.37S393.54,20,408.57,20s19.13-5.46,19.13-5.46h34.17s26,8.2,32.79,15,0,12.3,0,12.3c4.57.54,8.79,1.2,12.7,1.93l-33.19.8Z" transform="translate(-6.81 -14.54)"/><path class="cls-1" d="M428.63,90.24l-12.61,33c-21.1,5.45-93.14-30.54-103.28-35.69,5.29-9,2.91-21.1,2.91-21.1C417.39,100,427.61,92,428.63,90.24Z" transform="translate(-6.81 -14.54)"/><path class="cls-4" d="M552.77,79.38c-3.34-.34-69.94-6.44-97.16,55.8.44-2,.79-3.12.79-3.12l-36.9-10.93-1.36,1.36a9.8,9.8,0,0,1-2.12.77l12.61-33a.84.84,0,0,0,.1-.23.18.18,0,0,0,0-.05L441.37,56.9l23.52-8.83,9.28-3.47,33.19-.8c34.76,6.42,44.7,18.57,44.7,18.57,5.46,6.83-1.37,16.39-1.37,16.39.71.1,1.42.21,2.12.35Z" transform="translate(-6.81 -14.54)"/><path class="cls-1" d="M452.3,644.51,349,664.56l-7.41-21.42L364.84,583l121.62-56,2.74-15,9.56-5.47v-6.83l-2.29-3.08c.26-.05,4-.85,9.95-1.72,0,0,30.61,34.86,63.4,45.79H584c-6.56,32.46-11.69,79.92,4.94,110.69l-7.89,19.73-8.5-6.06c-6.84,6.83-39.63-12.3-39.63-12.3l-2.74-4.1Z" transform="translate(-6.81 -14.54)"/><path class="cls-1" d="M345.71,15.9c3.69,0,4.26,2.49,4.25,4.1a211,211,0,0,1-32.34,13.87C288,43.85,265.09,44.6,265.09,44.6L239.83,55.72c-3.8-.23-4.81-4.29-4.81-4.29C210.42,22.74,340.25,15.9,345.71,15.9Z" transform="translate(-6.81 -14.54)"/><path class="cls-2" d="M206.32,588.48c27.4-25.66,58.23-46.05,89-62.18A63.94,63.94,0,0,1,328,558.42v13.66l-28.7,17.77-13.67,13.66-38.26,34.17q-2.06,8.87-4.1,17.76l-.27.19-39.07-55Z" transform="translate(-6.81 -14.54)"/><path class="cls-3" d="M247.32,637.68l38.26-34.17,13.67-13.66L328,572.08V558.42a63.94,63.94,0,0,0-32.64-32.12c87.6-45.93,174.58-57.36,180-58l21.18,28.33h0l2.29,3.08v6.83L489.2,512l-2.74,15L364.84,583l-23.23,60.12L349,664.56l-37.47,7.28-6.83-4.1-12.3,5.47A99.15,99.15,0,0,1,278.75,706L243,655.63l.27-.19Q245.28,646.54,247.32,637.68Z" transform="translate(-6.81 -14.54)"/><path class="cls-1" d="M278.75,706,129.28,929.81v0c-19.72-1.78-32.61-9.87-39.88-16.22A44.71,44.71,0,0,1,82,905.52C179,807.13,170.8,706,170.8,706l-4.1-60.12,2.73-15c2.73-32.79,17.76-51.92,17.76-51.92l16.4,23.23.29-1.47,39.07,55Z" transform="translate(-6.81 -14.54)"/><path class="cls-2" d="M236.39,63.73a43.27,43.27,0,0,1,12.3-1.36,22.4,22.4,0,0,1,6.83-4.1,23.21,23.21,0,0,1,10.93-1.37l5.47,1.37-1.37,12.3c35.53,2.73,35,19.39,35,19.39L289.68,97.9,287,104.73l-5.47,2.73-4.1,6.83-5.46,1.37-2.73,2.73-9.57,4.1-2.73-1.36-5.47,1.36L244.59,117,235,122.49c0-4.1-17.76-17.76-17.76-17.76V74.67l1-1.25h0A44,44,0,0,1,236.39,63.73Z" transform="translate(-6.81 -14.54)"/><path class="cls-3" d="M229.56,59.63l12.29-4.1a5.88,5.88,0,0,1-2,.19L265.09,44.6s22.86-.75,52.53-10.73v0s148.92,6.73,147.27,14.18L441.37,56.9,428.74,90a.18.18,0,0,1,0,.05l-.1.23c-1,1.75-11.24,9.72-113-23.77,0,0,2.38,12.14-2.91,21.1L311.55,87l-6,3s.52-16.66-35-19.39l1.37-12.3-5.47-1.37a23.21,23.21,0,0,0-10.93,1.37,22.4,22.4,0,0,0-6.83,4.1,43.27,43.27,0,0,0-12.3,1.36,44,44,0,0,0-18.09,9.68Z" transform="translate(-6.81 -14.54)"/><path class="cls-2" d="M200.86,991.61s-42.36,15-174.92,12.3L6.81,986.14l8.2-24.6,19.13-6.83L56,950.61l2.73-4.1H51.91l37.49-32.9c7.27,6.35,20.16,14.44,39.88,16.22,1.49.12,3,.23,4.62.28,0,0,46.46,0,69.69,31.43l-.65-4.63,4.75,21Z" transform="translate(-6.81 -14.54)"/><path class="cls-4" d="M129.28,929.81,278.75,706c41,47.83-82,207.72-82,207.72l6.15,43.1,0,.09.65,4.63c-23.23-31.43-69.69-31.43-69.69-31.43-1.59-.05-3.13-.16-4.62-.28Z" transform="translate(-6.81 -14.54)"/></svg>