<svg id="Camada_1" data-name="Camada 1" xmlns="http://www.w3.org/2000/svg" viewBox="0 0 805.63 1039"><defs><style>.cls-1{fill:#527849;}.cls-2,.cls-4{fill:none;}.cls-2,.cls-5{stroke:#006837;}.cls-2,.cls-4,.cls-5{stroke-miterlimit:10;}.cls-3{fill:#4e436d;}.cls-4{stroke:#3a3352;}.cls-5{fill:#fff;}.cls-6{fill:#006837;}.cls-7{fill:#3a3c37;}</style></defs><title>hulk</title><path class="cls-1" d="M632.56,775.53c-1.7,1.47-1,4.38,0,10.11,3.31,19.76,1.14,25.23,6.75,35.4a25.45,25.45,0,0,0,3.54,5.39c5.7,6.33,14,7,33.54,26.64,12.81,12.9,16,19.39,15.17,25.28-.52,3.88-2.84,8.17-1.68,15.18.64,3.89,1.74,4.86,1.68,8.42-.1,6.27-3.56,7.33-3.37,11.8.26,6.15,6.88,6.54,8.43,13.49,1.1,4.94-1.81,6.66-3.37,15.17-1.62,8.82,1.17,8.77,0,16.86-1.4,9.61-5.55,11.09-10.12,27-.69,2.42-1.23,4.59-1.68,6.74-2.13,10.12-3.71,17.6,0,21.92,2.36,2.75,4.77,1.76,6.74,5.05,1.8,3,.49,5,1.69,8.43,1.64,4.78,6.22,7.25,8.43,8.43,1.55.83,6.47,3.22,18.54,1.69,11-1.4,20.64-2.23,23.6-8.43,2.45-5.14-.75-11.6,0-11.8s1.67,6.75,6.74,11.8c4,3.94,11.62,7.84,18.54,5a16,16,0,0,0,9.2-10.52c.58-2.4.34-4.55.92-4.65,1-.16,1.17,6.07,5,10.12,5.18,5.39,16.16,6.1,20.23,1.68,2.77-3,2.08-8.36,3.37-8.43,1,0,.94,3.25,3.38,5.06,3,2.25,8.57,1.29,11.8-1.68a11,11,0,0,0,3.37-6.75c.17-2.56-.91-4.11,0-5.05,1-1.1,3.05.39,5.05,0,4.2-.82,6.93-9.6,6.75-16.86-.25-10-6-17.29-8.43-20.23-6.13-7.5-9.44-6.21-15.17-13.49-3.83-4.86-2.75-5.93-8.43-18.54-7.68-17-11.58-19.31-10.12-25.28,1.25-5.09,4.92-6.89,5.06-13.49a22,22,0,0,0-1.68-8.43c-2.74-7.3-6.58-8.39-8.43-13.48-1.7-4.67-.18-8.43,1.68-15.17,2.43-8.82,3-18.06,5.06-27a186.9,186.9,0,0,0,3.37-55.62s-2.3-24.62-18.54-52.26c-1.32-2.24-3.77-6.21-7.4-6.5-6.72-.54-11.52,12-17.89,21.67-11.1,16.93-29.47,29.22-45.51,33.72-14.74,4.13-40,5.17-62.37-5.06C643.2,777.6,635.58,772.92,632.56,775.53Z" transform="translate(-83.86)"/><path class="cls-2" d="M703.36,1020c1.46,1.62,4.62-.76,11.8-1.68,11-1.42,17.11,2.42,18.54,0,1.31-2.2-2.51-7.42-6.74-10.12-5.23-3.34-13.13-4.14-18.54,0C704,1011.51,701.54,1017.93,703.36,1020Z" transform="translate(-83.86)"/><path class="cls-2" d="M750.56,1020c.79,4.12,20.2,5.89,21.92,1.69.95-2.34-3.33-7.2-8.43-8.43C756.92,1011.49,750.06,1017.29,750.56,1020Z" transform="translate(-83.86)"/><path class="cls-2" d="M782.59,1021.64c1.09,4.23,16.24,5.94,18.54,1.68,1.44-2.66-1.57-8.73-6.74-10.11C787.75,1011.44,781.8,1018.56,782.59,1021.64Z" transform="translate(-83.86)"/><path class="cls-2" d="M807.88,1013.21c-1.47,3.62-1.64,7.06,0,8.43.36.31,1.07.72,6.74,0,4.14-.53,6.22-.81,6.74-1.69,1.24-2.1-1.11-7-5.06-8.43C812.09,1009.94,808.14,1013,807.88,1013.21Z" transform="translate(-83.86)"/><path class="cls-2" d="M822.61,1009c1.45-2,4.85-3.36,6.46-1.93s1.1,4.69-.16,5.33c-.92.47-1.73-.8-3.72-.65s-2.67,1.36-3.23,1S821.66,1010.33,822.61,1009Z" transform="translate(-83.86)"/><path class="cls-2" d="M733.7,986.24a34.31,34.31,0,0,0,1.69,21.91,31.72,31.72,0,0,0,4.76,7.55c-.46-.83-.92-1.66-1.39-2.49" transform="translate(-83.86)"/><path class="cls-2" d="M695.78,997.2a44.44,44.44,0,0,1,33.71-3.38" transform="translate(-83.86)"/><path class="cls-2" d="M751.4,1000.57a16,16,0,0,1,5.06-1.69,16.91,16.91,0,0,1,10.12,1.69" transform="translate(-83.86)"/><path class="cls-2" d="M782.61,999.62a16.48,16.48,0,0,1,5.06-1.69,17,17,0,0,1,10.11,1.69" transform="translate(-83.86)"/><path class="cls-2" d="M801.15,997.93a12,12,0,0,1,5.06-1.68,11.88,11.88,0,0,1,5.88,1" transform="translate(-83.86)"/><path class="cls-1" d="M187.54,745.18c1.06-.15,1.89,1.49,6.74,5.06,0,0,1.66,1.22,5.06,3.37,34.15,21.62,59,18.55,59,18.55,22.32-2.77,31.53-18.65,48-14.33,2.44.64,7,2.24,12.64.84,9.33-2.33,11.3-10.94,15.18-10.11,10.07,2.13,17.31,31.67,10.11,57.31-5.89,21-16.1,20.3-27,47.2-5.36,13.25-12.37,30.6-8.43,50.57,3.58,18.11,12.43,19.46,16.86,40.46,2.27,10.8,6.13,29.07-3.37,40.45-12.66,15.17-44.4,12.58-53.95,11.8-12.84-1.05-21.87-4.17-30.34,1.69-6.46,4.47-5.86,9.51-13.49,13.48-6.75,3.52-9.1.55-21.91,3.38-11.17,2.45-11.74,5.23-18.54,5.05-8.68-.22-9.71-4.78-18.54-6.74-9.15-2-10.58,2.74-32,5.06-8.54.92-12.9.71-16.86-1.69-.94-.57-3.44-2.63-8.43-6.74-2.79,1.39-3,1.55-3.37,1.68-4.06,1.63-10.7-4.78-16.86-10.11-2-1.7-3-2.57-3.37-3.37-3.78-7.28,5.51-21.53,16.86-28.66,8-5,10.39-2.4,27-6.74,13.83-3.62,26.6-7,37.09-16.86,9.43-8.91,6.18-12.9,16.85-21.91,9.59-8.09,15.45-7.61,20.23-15.17,3.45-5.45,4.08-11.51,3.37-21.92-1.31-19.35-5.89-33.71-8.43-42.14-4.3-14.3-11.79-41.65-13.48-72.48C182.83,747.84,186.42,745.35,187.54,745.18Z" transform="translate(-83.86)"/><path class="cls-2" d="M167.31,964.32a24.94,24.94,0,0,1-8.43,8.43c-4.75,2.81-7.9,2.29-15.17,5.06-2.18.83-3.2,1.38-10.11,5.06-20.58,11-23.73,12.62-25.29,16.85-.71,1.92-1.4,5.21,0,10.12" transform="translate(-83.86)"/><path class="cls-2" d="M150.45,966a48.24,48.24,0,0,1-11.8,5.06c-6.52,1.79-8.87.89-13.48,3.37-4.3,2.3-3.36,3.67-8.43,6.74-4.41,2.67-5.21,1.69-11.8,5.06-3.4,1.74-2,1.38-8.43,5.06-3.59,2-5.34,2.9-6.74,5.05a11.17,11.17,0,0,0-1.69,5.06" transform="translate(-83.86)"/><path class="cls-2" d="M133.6,966a39.69,39.69,0,0,1-8.43,3.37c-6.24,1.69-9.67,1-13.49,1.69-4,.78-9.47,3.4-15.17,11.8" transform="translate(-83.86)"/><path class="cls-2" d="M127.92,985.89a11.22,11.22,0,0,1,9,2,10.48,10.48,0,0,1,3.37,5.06l-8.43,6.74-19.27-5.1" transform="translate(-83.86)"/><path class="cls-2" d="M89.77,996.35l8.43,3.37,10.11-3.37a8.5,8.5,0,0,0-3.37-5.05,8.62,8.62,0,0,0-5.9-1.48" transform="translate(-83.86)"/><path class="cls-2" d="M100.81,988.73c0-.92-.17-2.08-.93-2.49-.45-.25-.92-.11-1.68,0a12.82,12.82,0,0,1-3.37,0A9.63,9.63,0,0,0,88.08,993l2.48,3.69" transform="translate(-83.86)"/><path class="cls-3" d="M186.7,744.34l6.74-23.6a89.44,89.44,0,0,1-4.21-19.38,90.84,90.84,0,0,1,4.21-37.93c4.36-12.83,8.34-14.27,21.07-34.56,10.46-16.67,9.7-18.76,21.91-40.46,13.46-23.89,20.19-35.84,28.66-45.51C276.42,530,279.43,531.39,319,497.39c15.36-13.19,17.75-15.85,20.23-20.23,12.89-22.76,3.87-48.86,10.12-50.57,2.95-.81,5.31,4.9,15.17,13.48,0,0,6.82,5.95,20.23,13.49,11.16,6.28,40.35,18.49,82.6,20.23,53,2.18,90.6-13.6,102.82-20.23,11.42-6.2,18.62-10.11,25.29-18.54,5.23-6.62,7-12.1,10.11-11.8,4.33.42,5.3,11.69,10.12,27,.41,1.32,6.37,19.94,15.17,33.71,10.6,16.6,18.39,15.32,37.08,33.72,15,14.8,23.42,28.83,30.35,40.45,12.5,21,20.43,34.27,23.6,53.94,2.88,17.92.65,33.92,6.74,48.89,2.1,5.16,5,9.77,6.74,18.54,1.16,5.88.79,8.56,3.37,11.8,3.36,4.22,7.43,4,10.12,8.43a13.89,13.89,0,0,1,1.68,8.43l21.92,20.23C769.87,734,752,771.18,708.42,784c-39.25,11.51-71.3-5.05-77.54-8.43,4.52-13.07,1.91-20.22,0-23.6s-7.46-7.33-18.55-15.17c-7.76-5.5-9.81-6.5-13.48-10.12a57.14,57.14,0,0,1-10.11-13.48c-4.57-8.14-14.85-19.48-35.4-42.15-29.14-32.13-43.71-48.19-54-50.57-16.2-3.76-35.61.53-48.88,10.12-9.87,7.13-10.87,13.24-27,27-5.36,4.57-11.51,8.72-23.6,16.85-8.59,5.78-36.77,24.56-53.95,40.46a34.52,34.52,0,0,0-8.42,11.8c-4,9.29-2.85,18.38-1.69,23.6-8.63,6-37.26,24.15-77.54,21.92A125.43,125.43,0,0,1,186.7,744.34Z" transform="translate(-83.86)"/><path class="cls-4" d="M351.89,474.63a478.9,478.9,0,0,0,45.52,52.26c25.1,24.92,38,37.5,57.31,43.82,1.77.58,40.31,12.09,75.86-6.74,7.34-3.88,19.07-13.25,43-31.18,4.82-3.62,12.3-9.27,23.6-11.8a55.54,55.54,0,0,1,23.6,0" transform="translate(-83.86)"/><path class="cls-4" d="M373.81,525.2c1.62,4.19,4.11,12.51,1.68,21.91-1.11,4.31-4,11.92-16.85,21.92-18.44,14.39-39.46,19.77-53.94,21.91" transform="translate(-83.86)"/><path class="cls-4" d="M340.1,612.86c.19,20.52-3,52-21.92,80.91-7.81,11.93-17.13,25.7-33.71,28.66-13.5,2.41-25.09-3.55-30.35-6.75" transform="translate(-83.86)"/><path class="cls-4" d="M228.84,683.66c8.33,15.33,7.53,24.62,5.06,30.34-2.75,6.36-7.39,7.9-11.8,15.17-5.66,9.3-5.85,19.57-5.06,27" transform="translate(-83.86)"/><path class="cls-4" d="M404.15,594.31a199.45,199.45,0,0,1-28.66,48.89q-1.68,10.11-3.37,20.23-2.25,6.55-5.05,13.48a273.73,273.73,0,0,1-11.8,25.29" transform="translate(-83.86)"/><path class="cls-4" d="M572.72,543.74c-.93,18.79,4,29.25,10.12,35.4,5.06,5.12,7.83,4.15,20.22,11.8,16.65,10.29,15.11,14.18,28.66,21.92,14.28,8.15,17.77,4.84,30.34,13.48,10.3,7.08,8.72,11.61,18.55,16.86,7,3.77,11.58,3.8,21.07,9.27a80.52,80.52,0,0,1,11,7.59" transform="translate(-83.86)"/><path class="cls-4" d="M539,590.94c-2.4,18.6,1.17,30.87,5,38.77,2.73,5.55,5.79,9.28,10.12,18.55a132.87,132.87,0,0,1,8.43,23.6" transform="translate(-83.86)"/><path class="cls-4" d="M662.06,636.46c.7.83,16.94,20.9,8.43,43.82-5.67,15.28-18.7,22.05-21.91,23.6" transform="translate(-83.86)"/><path class="cls-4" d="M643.52,712.31A27.05,27.05,0,0,0,652,730.86a26.56,26.56,0,0,0,15.17,6.74" transform="translate(-83.86)"/><path class="cls-1" d="M397.41,83.55A40.7,40.7,0,0,0,392.35,92c-2.61,5.87-1.67,7.59-3.37,10.11-3.92,5.81-12.15,1.54-22.76,5.9-10.21,4.2-8.35,10.89-18.54,15.17-9,3.78-14.17.86-25.28,1.69s-18.4,4.66-32,11.8c-27.75,14.53-44.31,22.75-52.26,40.45-6.5,14.49-1.74,22.74-11.8,33.72-5.17,5.64-7.51,4.65-20.23,15.17-8.38,6.93-13.68,11.32-18.54,18.54-5.55,8.24-4.26,10.86-10.11,23.6-5.69,12.38-9.33,20.32-16.86,27-12.12,10.72-20.17,5.62-32,16.86-2.35,2.22-6.09,8.82-13.49,21.91-10.85,19.23-14.23,26.88-16.85,35.4s-3.6,15.12-1.69,21.92c1.49,5.27,3.32,5.85,5.06,10.11,3.18,7.8.78,15-8.43,40.46-7.29,20.16-8.7,23.71-6.74,28.66,3,7.63,12.48,14.53,20.23,13.48,4.29-.58,6-3.34,11.8-3.37,1.87,0,8,0,10.11,3.37,2.82,4.51-4.63,9.63-5.06,20.23-.39,9.88,5.62,17.18,6.75,18.54s9.89,11.72,20.22,10.12c4.21-.66,7.25-3.1,11.8-6.75,7.6-6.09,8.36-10.25,11.8-10.11,4.47.18,5,7.26,11.8,10.11,4.27,1.79,8.37.82,11.8,0,12.25-2.9,23.26-13.24,28.66-25.28,3.74-8.34,1.82-10.85,6.74-18.54,4.43-6.92,7.51-7.28,10.12-13.49,2.38-5.68.52-7.08,1.68-18.54,1.39-13.64,4.78-19.14,1.69-21.92-3.32-3-9.66,1.18-11.8-1.68-1.86-2.49,2.7-5.9,3.37-13.49.73-8.37-4.17-11.49-1.69-16.85,1.59-3.42,3.7-2.4,6.75-6.75,3.89-5.55,1.41-8.59,5.05-13.48,2.51-3.36,5.85-4.85,10.12-6.75a44.58,44.58,0,0,1,11.8-3.37c17.64-2.77,29.74-37.52,40.46-35.4,5.65,1.12,2.77,10.88,13.48,21.92,8.72,9,16,8,20.23,16.85,2.1,4.38,1.65,7.4,1.68,16.86.05,10.13,1.19,20.23,1.69,30.34,1.18,23.88,74.73,86.3,158.46,72.49,61.76-10.19,109.25-58.6,104.51-77.54-.68-2.7-3.46-9-3.37-18.55A55.82,55.82,0,0,1,612.33,371c5.27-12.27,9.33-11.75,13.49-21.91,5.76-14.09,1.73-24.26,5.06-25.29,4.94-1.52,9,22.35,30.34,35.4,15.65,9.55,28.66,11.8,28.66,11.8,5.84,1,11.18,1.11,16.85,5.06s8.12,9.16,10.12,13.48C728.3,414.25,734,426.62,735.39,435c2,12.19.8,19.12,6.74,28.65,3,4.78,3.7,3.71,8.43,10.12,10.9,14.75,8.72,22.64,16.86,27,5.85,3.11,12.66,2.07,15.17,1.68,9.24-1.41,11.93-6.59,16.86-5.05s3.88,7.07,10.11,13.48c1.12,1.15,8.85,8.9,18.54,8.43,10.1-.49,18.75-9.73,21.92-18.54,4-11.25-1.79-19.22,3.37-23.6,3.8-3.23,7.63.52,16.86-1.69,1.22-.29,14.65-3.68,18.54-13.48,1.4-3.53.89-6.18-3.37-21.92-6.4-23.62-6.56-22.49-6.75-25.28-1-14.85,5.29-22.24,0-28.66-3-3.69-6.23-2.62-8.42-6.74-3.07-5.75,2.18-9.65,0-16.86-1.81-5.95-6.06-5.49-10.12-13.48-2.54-5-2.15-7.69-3.37-11.8-2.64-8.9-9.83-14.37-18.54-20.23-25.41-17.09-30-14.69-40.46-23.6-15.15-12.9-7.29-19.41-28.66-47.2-10.3-13.4-17.3-22.52-30.34-28.66-11.84-5.58-17.69-3.53-23.6-10.11-8.8-9.8-1-20-6.74-35.4-4.82-12.82-16.7-19.79-40.46-33.72-19-11.13-28.49-16.7-42.14-18.54-17.73-2.39-25.47,2.39-45.51-1.68a100.05,100.05,0,0,1-26.13-9.28c-4.39-1.78-13-5.66-20.23-11.8-3.81-3.24-6-5.16-6.74-8.42-.64-2.81,0-5.66-1.69-6.75-1.16-.74-2.68-.19-3.37,0-7.29,2-14.31-10.39-23.6-10.11-6.7.2-8.21,6.81-14.33,5.9-4.47-.67-6-4.55-9.27-7.59-12.85-11.94-42.35-1.38-55.63,3.37A137.71,137.71,0,0,0,397.41,83.55Z" transform="translate(-83.86)"/><path class="cls-2" d="M107.47,358.32c1.78-3.63,3.63-4.75,5.06-5.06.88-.19,1.48,0,5,0,2.1,0,3.15,0,3.37,0,3.63-.5,4.3-4,7.59-5.9a10.91,10.91,0,0,1,10.11,0c6.18,3.48,5.3,14,5.06,16.86s-.71,8.52-5.06,13.48c-1.6,1.84-8.14,8.6-16.85,6.75-8-1.7-11.42-9.24-11.8-10.12" transform="translate(-83.86)"/><path class="cls-2" d="M116.74,401.3a17.53,17.53,0,0,0,11.8-3.37c7.82-6,6.53-16.44,6.47-16.88" transform="translate(-83.86)"/><polyline class="cls-2" points="32.88 354.1 32.88 360.85 39.63 357.47 42.08 349.6"/><path class="cls-2" d="M111.68,416.47a27.23,27.23,0,0,1-.87,14.8,22.58,22.58,0,0,1-4.18,7.12,24.46,24.46,0,0,1-15.15,8" transform="translate(-83.86)"/><path class="cls-2" d="M118.43,480.53a72.91,72.91,0,0,1,5-8.43c7.57-10.9,12.65-11.94,18.55-20.23,3.1-4.36,10.31-14.49,6.74-23.6-2.1-5.36-7.77-9.92-13.49-10.11-1.42-.05-3.75.15-11.8,5.06a126.59,126.59,0,0,0-13.13,9.18" transform="translate(-83.86)"/><path class="cls-2" d="M125.17,430l10.11,13.48a10.54,10.54,0,0,0,5.06,0,11.35,11.35,0,0,0,6.74-5.05,24.57,24.57,0,0,0-11.8-18.55A11.94,11.94,0,0,0,125.17,430Z" transform="translate(-83.86)"/><path class="cls-2" d="M135.28,391.19a116.08,116.08,0,0,1,21.92,20.23c6.91,8.27,11.32,13.71,11.8,21.91.09,1.62.62,10.62-5.06,16.86-4.63,5.09-13.45,8.41-13.49,8.43h0" transform="translate(-83.86)"/><path class="cls-2" d="M140.34,467a24.15,24.15,0,0,1-6.74,8.43,24.47,24.47,0,0,1-12.26,5.06" transform="translate(-83.86)"/><path class="cls-2" d="M138.65,485.59a13.62,13.62,0,0,1,6.75-5.06c6-2,11.09,1.23,11.8,1.69" transform="translate(-83.86)"/><path class="cls-2" d="M169.05,437.35a144.09,144.09,0,0,1,20.18,14.52A146.24,146.24,0,0,1,204.4,467" transform="translate(-83.86)"/><path class="cls-2" d="M131.91,504.13A119.73,119.73,0,0,0,170.68,462,16.14,16.14,0,0,1,196,477.16a108.4,108.4,0,0,1-21.92,38.77" transform="translate(-83.86)"/><path class="cls-2" d="M172.37,475.47c.65,4.4,6.24,6.56,6.74,6.75a12.76,12.76,0,0,0,8.43,0,12,12,0,0,0,5.06-13.49,17.1,17.1,0,0,0-16.86-5.06,27.45,27.45,0,0,0-3.37,10.12A5.91,5.91,0,0,0,172.37,475.47Z" transform="translate(-83.86)"/><path class="cls-2" d="M194.28,482.22l8.43-3.38,5.06-25.28a19.56,19.56,0,0,1,5-3.37,19.84,19.84,0,0,1,9.07-1.76l1.05.07a12.81,12.81,0,0,1,10.11,3.37,12,12,0,0,1,3.37,6.75q-2.62,13.49-5.26,27" transform="translate(-83.86)"/><path class="cls-2" d="M233.05,426.59a22.95,22.95,0,0,0-10.11,21.91" transform="translate(-83.86)"/><path class="cls-2" d="M214.51,453.56l1.69,11.8a61.24,61.24,0,0,1,6.74,1.68,60.22,60.22,0,0,1,8.43,3.38,39.07,39.07,0,0,0,1.68-15.18,17.93,17.93,0,0,0-18.54-1.68Z" transform="translate(-83.86)"/><path class="cls-2" d="M234.74,433.33c-1.91,1.43-1.66,5.58,0,10.11l10.31,5q1.23-7,2.45-14c-1.4-.33-3.47-.76-6-1.11C237.68,432.81,235.76,432.57,234.74,433.33Z" transform="translate(-83.86)"/><path class="cls-2" d="M150.45,397.93a44.07,44.07,0,0,0,32-6.74" transform="translate(-83.86)"/><path class="cls-2" d="M179.11,406.36a40.95,40.95,0,0,0,27-35.4" transform="translate(-83.86)"/><path class="cls-2" d="M196,330.5a31,31,0,0,0,8.43,18.55,29.79,29.79,0,0,0,10.11,6.74" transform="translate(-83.86)"/><path class="cls-2" d="M217.88,369.27c1.19.54,12.6,5.88,15.17,18.55a26.3,26.3,0,0,1-3.37,18.54" transform="translate(-83.86)"/><path class="cls-2" d="M195.13,267.29c18-7.87,35.3-10,40.45-3.37,5.91,7.63-2.66,28.66-25.28,48.88" transform="translate(-83.86)"/><path class="cls-2" d="M236.42,188.9c-1.28,3.48-9.22,26.22,3.38,48.89a58.81,58.81,0,0,0,28.65,25.29" transform="translate(-83.86)"/><path class="cls-2" d="M271.82,205.76c-3,20.2-2.51,35-1.68,43.83.78,8.45,2.32,16.62,8.43,20.23a13,13,0,0,0,5.05,1.68" transform="translate(-83.86)"/><path class="cls-2" d="M295.42,237.79c-7.25,18.86-8.17,34.58-1.68,38.77,4.25,2.74,11.05.14,20.23-3.37a89.54,89.54,0,0,0,23.6-13.49" transform="translate(-83.86)"/><path class="cls-2" d="M310.6,209.13c3.24-19.16,16.84-32,30.34-32,9,0,15.79,5.77,18.54,8.43" transform="translate(-83.86)"/><path class="cls-2" d="M287,182.16c1-1.44,10.45-14.86,27-15.17a33.06,33.06,0,0,1,20.23,6.74" transform="translate(-83.86)"/><path class="cls-2" d="M317.34,148.45c3.45,3.35,3.44,5.89,3.37,6.74-.43,5-8.38,10-20.23,10.11" transform="translate(-83.86)"/><path class="cls-2" d="M388.14,199c3.49,8.8,8.14,13,11.8,15.17,2.44,1.46,3.36,1.39,13.48,5.06,10.66,3.86,10.09,4.11,13.49,5.05,11.44,3.2,13.22-.88,21.91,1.69a32.2,32.2,0,0,1,20.23,18.54c1.44,3.71,1.68,6.82,1.69,13.49,0,26.58-3.74,30-3.37,48.88.18,9.48,1.24,14.52-1.69,21.92-3,7.55-8.5,13.43-8.43,13.48s3.7-4.78,3.37-5.05-3.14,4.29-8.43,6.74c-3.65,1.69-6.27,1.36-10.11,1.68-8.07.69-12.86,3.58-16.86,5.06-15.72,5.83-39.84-2.47-52.25-6.74-13.93-4.79-22.59-7.77-32-15.17-19.27-15.11-26.1-36.33-28.66-47.2" transform="translate(-83.86)"/><path class="cls-2" d="M347.68,364.22a47.85,47.85,0,0,0,6.74,23.6c4.46,7.32,14.44,19,21.92,16.85.88-.25,2.16-.82,11.8-13.48,2.12-2.79,3.86-5.13,5.05-6.74" transform="translate(-83.86)"/><path class="cls-2" d="M411.74,359.16a51.7,51.7,0,0,0-13.49,20.23c-1.41,4-2.37,6.76-1.68,10.11.36,1.76,2,7.57,18.54,15.17,10.64,4.89,27.23,12.51,43.83,6.75,3.22-1.12,6.16-2.19,8.43-5.06,4.22-5.36.83-10.36,1.68-25.29.55-9.67,2.25-12.36,0-16.85-2.35-4.71-6.92-7.15-10.11-8.43" transform="translate(-83.86)"/><path class="cls-2" d="M394.88,404.67c-.05,3.1,0,18.27,11.8,30.35,15.41,15.81,37,12.13,38.77,11.8" transform="translate(-83.86)"/><path class="cls-2" d="M394.88,456.93c-.52-.69-7-9.47-3.37-18.54a16.72,16.72,0,0,1,5.06-6.75" transform="translate(-83.86)"/><path class="cls-2" d="M357.79,403a55.76,55.76,0,0,0,11.8,35.4" transform="translate(-83.86)"/><path class="cls-2" d="M469.05,419.84v20.23" transform="translate(-83.86)"/><path class="cls-2" d="M462.31,446.82c-.1.32,1.05,1.34,3.37,3.37,3.66,3.2,4.43,3.62,5.06,3.37,1-.39.44-2,1.68-3.37,1.77-2,5-1.31,5.06-1.69C477.55,447.7,462.92,444.83,462.31,446.82Z" transform="translate(-83.86)"/><path class="cls-2" d="M492.65,446.82c13.45,7.55,29.35,5.89,38.77-3.38,9.08-8.92,8.56-21.37,8.43-23.6" transform="translate(-83.86)"/><path class="cls-2" d="M472.42,360.85a170.71,170.71,0,0,1,1.69,21.91c.19,15.7-1.92,20.14,1.68,25.29,5.95,8.51,20.14,8.45,25.29,8.42a40.65,40.65,0,0,0,16.86-3.37c3.86-1.74,3.8-2.54,6.74-3.37,7.86-2.23,12.35,2.36,16.86,0,3.49-1.83,4.36-6.45,5.05-10.11,2.45-13-3.35-24.68-6.74-30.35" transform="translate(-83.86)"/><path class="cls-2" d="M534.79,462a52.82,52.82,0,0,0,8.43-15.17c3.83-10.93,2-18.05,6.74-32a81.09,81.09,0,0,1,3.38-8.43" transform="translate(-83.86)"/><path class="cls-2" d="M544.91,365.9c2,8.61,5.49,12,8.43,13.49,3.15,1.59,5.83,1,8.42,3.37,2.93,2.65,3.42,6.9,3.38,10.11" transform="translate(-83.86)"/><path class="cls-2" d="M561.76,401.3c4.15,10.78,9,11.67,10.12,11.8,5.86.7,11.12-7.17,18.54-18.54a147.69,147.69,0,0,0,11.8-21.91" transform="translate(-83.86)"/><path class="cls-2" d="M578.62,414.79a43.16,43.16,0,0,1-1.68,23.6,42.13,42.13,0,0,1-6.75,11.8" transform="translate(-83.86)"/><path class="cls-2" d="M396.57,167a33.08,33.08,0,0,0-10.12,3.37c-11.19,5.91-15.57,16.64-16.86,20.23" transform="translate(-83.86)"/><path class="cls-2" d="M487.59,194a72,72,0,0,1-16.85,35.4" transform="translate(-83.86)"/><path class="cls-2" d="M470.74,232.73c13.13-12.81,21.6-14.47,27-13.48,2.47.45,6.85,1.94,13.48,1.68a45.32,45.32,0,0,0,10.12-1.68c10.83-3.35,14.74-12.09,23.6-20.23a63.61,63.61,0,0,1,23.6-13.49" transform="translate(-83.86)"/><path class="cls-2" d="M521.31,160.25a60.91,60.91,0,0,0,35.4,27" transform="translate(-83.86)"/><path class="cls-2" d="M425.22,183.85a35.82,35.82,0,0,0,0,21.91,34.69,34.69,0,0,0,6.75,11.8" transform="translate(-83.86)"/><path class="cls-2" d="M406.68,188.9a74.83,74.83,0,0,1,0-32" transform="translate(-83.86)"/><path class="cls-2" d="M472.42,301.85c-.66,4.16-3.68,25.69,10.12,40.45,14.08,15.07,36.23,13,48.88,11.8,14.69-1.38,25.36-6.34,37.09-11.8,12.2-5.68,22.25-10.35,32-20.23,15.89-16,25.18-39.86,18.55-47.19-1.83-2-3.66-1.46-8.43-5.06A39.06,39.06,0,0,1,600.53,258c-3.36-5.42-11-12.41-30.34-18.54" transform="translate(-83.86)"/><path class="cls-2" d="M576.94,224.3c6.87,10.8,20,27.69,42.14,38.78,13,6.55,30,15,43.83,8.42,6-2.86,9-7.43,21.91-13.48,5.33-2.51,10.63-4.46,16.86-3.37a22.53,22.53,0,0,1,8.43,3.37" transform="translate(-83.86)"/><path class="cls-2" d="M622.45,177.1c5.69.91,34.13,6,52.26,32a76.92,76.92,0,0,1,13.48,40.46" transform="translate(-83.86)"/><path class="cls-2" d="M622.45,138.33a23,23,0,0,0-15.17,10.12c-5.86,9.37-2.1,19.21-1.69,20.23" transform="translate(-83.86)"/><path class="cls-2" d="M642.68,135c4.3.64,27,4.42,42.14,25.29a63.8,63.8,0,0,1,11.8,40.45" transform="translate(-83.86)"/><path class="cls-2" d="M738.76,320.39a78.15,78.15,0,0,0-3.37-20.23C728,276,712,267,715.16,261.39c3.27-5.79,24.83-4.56,37.09,6.74,6.4,5.9,6.71,11.27,15.17,18.54A52,52,0,0,0,786,296.79" transform="translate(-83.86)"/><path class="cls-2" d="M735.39,342.3l10.11,18.55" transform="translate(-83.86)"/><path class="cls-2" d="M755.62,360.85c-.88,2.13-5.18,13.15,0,25.28A32.67,32.67,0,0,0,769.1,401.3" transform="translate(-83.86)"/><path class="cls-2" d="M861.82,372.65c-1.73,6.13-4.63,8.81-6.75,10.11-12.13,7.42-38.37-6.74-40.45-23.6-.77-6.2,1.54-14.38,6.74-16.86,4-1.89,7.68.5,18.54,3.37a139.94,139.94,0,0,0,16.86,3.38" transform="translate(-83.86)"/><path class="cls-2" d="M828.1,327.13" transform="translate(-83.86)"/><path class="cls-2" d="M882.05,441.76c-9.94-9.94-17-17.79-21.92-23.6-2.7-3.17-6.68-8-13.48-10.11-2.34-.74-7-2.12-11.8,0a15.35,15.35,0,0,0-8.43,10.11c-2.27,9,5.36,18,10.11,23.6,5.18,6.08,7.33,6,11.8,11.8a49.09,49.09,0,0,1,8.43,16.86" transform="translate(-83.86)"/><path class="cls-2" d="M848.33,443.44q5.91-5.9,11.8-11.8" transform="translate(-83.86)"/><path class="cls-2" d="M843.28,438.39a23.63,23.63,0,0,1,13.48-11.8" transform="translate(-83.86)"/><path class="cls-2" d="M826.11,419.84l7,10.12,15.17-10.12-5.05-10.11a11.19,11.19,0,0,0-8.43-1.68c-4.39,1-7.81,5.05-8.43,10.11" transform="translate(-83.86)"/><path class="cls-2" d="M832.2,343.43l6,14,5.06,5.06a8.12,8.12,0,0,0,3.37-3.37c1.84-3.61.54-8.72-3.37-12.64" transform="translate(-83.86)"/><path class="cls-2" d="M845,497.39a50.33,50.33,0,0,0-8.43-11.8c-7.06-7.34-11.26-7.11-15.17-13.49-3.65-6-1-7.81-5.06-15.17-1.88-3.42-6.33-11.51-13.48-11.8-5.53-.22-9.53,4.36-10.12,5.06-4.14,4.89-3.71,11.15-3.37,15.17.22,2.57,1.29,12.17,13.49,28.66a131.76,131.76,0,0,0,18.54,20.22" transform="translate(-83.86)"/><path class="cls-2" d="M797.76,473.79a22.36,22.36,0,0,1-1.68,3.37c-.19-.08.56-4.85,3.37-6.74,1.75-1.19,5-1.74,11.8,1.68" transform="translate(-83.86)"/><path class="cls-2" d="M750.56,456.93a8.6,8.6,0,0,0,5.06,1.69,9,9,0,0,0,6.74-3.38" transform="translate(-83.86)"/><path class="cls-2" d="M797.76,478.84h10.12" transform="translate(-83.86)"/><path class="cls-2" d="M787.65,467c-1.64,0-3.74-.23-5.06-1.68-1.68-1.85-.45-3.83-1.69-6.74-1.65-3.91-5.19-3.48-6.74-6.75s.68-5.85,1.69-10.11c1.63-6.93.17-17.94-6.75-21.92s-17.83-.06-21.91,6.75c-1.59,2.65-2.25,5.92,0,18.54a205.32,205.32,0,0,0,6.74,27" transform="translate(-83.86)"/><path class="cls-2" d="M742.13,463.67a74.1,74.1,0,0,1-5-35.4c.46-4.2,2.77-25.3,11.8-27,4-.74,9.26,2.36,11.8,6.75a13.87,13.87,0,0,1,1.68,8.42" transform="translate(-83.86)"/><path class="cls-2" d="M740.45,416.47a9.16,9.16,0,0,0,10.11,0c2-1.38,4.14-4.21,3.37-6.74-.84-2.78-5.15-4.85-10.11-3.37" transform="translate(-83.86)"/><path class="cls-2" d="M748.88,426.59l1.68,8.43a25.62,25.62,0,0,0,10.12,0,25.21,25.21,0,0,0,8.42-3.38q-1.68-5.06-3.37-10.11a11.44,11.44,0,0,0-10.11-1.69A11.27,11.27,0,0,0,748.88,426.59Z" transform="translate(-83.86)"/><polyline class="cls-2" points="705.27 463.67 724.02 455.25 724.02 446.73"/><path class="cls-2" d="M780.9,426.59c12.16-.78,18.45-4.92,21.92-8.43,6.35-6.42,5.86-13.3,13.48-21.91a43.1,43.1,0,0,1,13.49-10.12" transform="translate(-83.86)"/><path class="cls-2" d="M802.82,418.16a22.85,22.85,0,0,0,1.68,13.48,22.5,22.5,0,0,0,6.75,8.43" transform="translate(-83.86)"/><path class="cls-2" d="M710.11,378.87a22.31,22.31,0,0,0,20.22-24.77" transform="translate(-83.86)"/><line class="cls-2" x1="656.59" y1="365.9" x2="644.58" y2="365.9"/><path class="cls-2" d="M421.85,158.56a228.86,228.86,0,0,0,11.8-20.23c4.27-8.25,7-14.75,11.8-15.17a7.7,7.7,0,0,1,5.06,1.69" transform="translate(-83.86)"/><path class="cls-2" d="M443.77,124.85c-1.3,4.48-.82,6.13,0,6.74,1.46,1.1,3.9-1.25,6.74,0,1.69.74,1.34,1.8,3.37,3.37,2.18,1.69,5.79,2.94,8.43,1.69,1.46-.7,1.07-1.43,3.37-3.37,2.62-2.22,3.76-1.82,5.06-3.37,2.28-2.76.61-6.31,1.68-6.75,1.53-.62,4.84,6.57,11.8,15.17,4.55,5.62,5.88,5.94,8.43,10.12a39.25,39.25,0,0,1,5.06,13.48" transform="translate(-83.86)"/><path class="cls-2" d="M494.34,131.59a23.44,23.44,0,0,1,8.42,13.49,21.8,21.8,0,0,1,0,8.43" transform="translate(-83.86)"/><path class="cls-2" d="M411.74,121.48a13,13,0,0,0,0,6.74c.3,1.11,1.65,6,5.05,6.74,2.94.62,6.8-2,8.43-6.74" transform="translate(-83.86)"/><path class="cls-2" d="M416.79,141.71a20.75,20.75,0,0,0-1.68,11.8,20.4,20.4,0,0,0,3.37,8.42" transform="translate(-83.86)"/><path class="cls-2" d="M453.88,146.76a5.06,5.06,0,1,0,10.11,0" transform="translate(-83.86)"/><path class="cls-2" d="M430.28,151.82c-.91,3.16-1.71,7.21,0,8.43s4.5-1.74,10.11-3.37c7.84-2.29,8.62,1.77,18.55,0,8-1.43,9.81-1.52,13.48-1.69a13.61,13.61,0,0,1,1.69,0c3.38.21,4.63,1.51,6.74,1.69a7.56,7.56,0,0,0,5.06-1.69" transform="translate(-83.86)"/><path class="cls-5" d="M436.07,158.56a4.69,4.69,0,0,0-.73,3.37,5,5,0,0,0,3.37,3.37,69.22,69.22,0,0,0,42.14-3.37c1-1.78,1.67-3.67.93-5.05-1.8-3.41-9.88.11-24.53,0-6,0-11.3-.69-15.19-.54C439.15,156.45,437.05,157,436.07,158.56Z" transform="translate(-83.86)"/><path class="cls-2" d="M435.34,167a10.42,10.42,0,0,0,3.37,5.06c4.08,3.18,8.32.61,18.54,0,11.74-.71,16,2.08,21.91-1.69a17.11,17.11,0,0,0,5.06-5.06" transform="translate(-83.86)"/><path class="cls-2" d="M432,175.42c1.39,2,3.59,4.36,6.74,5.06,3.79.84,4.9-1.65,10.11-1.69,5.36,0,6.68,2.56,11.8,1.69,2.46-.42,2.13-1,5.06-1.69,5.25-1.2,7.76.39,11.8,0,2.56-.25,6.08-1.32,10.11-5.06" transform="translate(-83.86)"/><path class="cls-2" d="M443.77,113.05c8.11,1.23,10.85-.12,11.8-1.69.78-1.3.28-2.68,0-6.74a59.57,59.57,0,0,1,0-8.43" transform="translate(-83.86)"/><path class="cls-2" d="M464,99.56c-3.27,5.19-2.93,10.87,0,13.49a7.35,7.35,0,0,0,5.06,1.68" transform="translate(-83.86)"/><path class="cls-2" d="M425.22,111.36l10.12,3.37h5.05l1.69-3.37A21.43,21.43,0,0,0,432,109.68,21.1,21.1,0,0,0,425.22,111.36Z" transform="translate(-83.86)"/><path class="cls-2" d="M494.34,109.68l-10.66,5h-5.06l-1.68-3.37c.92-.44,2.26-1,3.91-1.68a31.34,31.34,0,0,1,5.06-1.69C487.31,107.73,490.26,107.5,494.34,109.68Z" transform="translate(-83.86)"/><path class="cls-6" d="M436.29,113.65a1.5,1.5,0,0,0,0-3,1.5,1.5,0,0,0,0,3Z" transform="translate(-83.86)"/><path class="cls-6" d="M483.44,112.88a1.5,1.5,0,0,0,0-3,1.5,1.5,0,0,0,0,3Z" transform="translate(-83.86)"/><path class="cls-2" d="M418.48,99.56A29.05,29.05,0,0,1,443.77,108" transform="translate(-83.86)"/><path class="cls-2" d="M502.76,97.88a43.61,43.61,0,0,0-22.45,3.91,42.37,42.37,0,0,0-10.11,6.74" transform="translate(-83.86)"/><path class="cls-2" d="M442.08,86.08c6.3,4.13,11.49,5,15.17,5,4.44,0,7.32-1.27,15.17-1.68a83,83,0,0,1,8.43,0" transform="translate(-83.86)"/><path class="cls-2" d="M440.39,92.82l6.75,10.11" transform="translate(-83.86)"/><path class="cls-2" d="M472.42,99.56l6.74-6.74" transform="translate(-83.86)"/><path class="cls-2" d="M402.89,112.4c1.36,1.1.27,4.52,0,5.42-.86,2.89-.58,8.56,0,19.89.43,8.32,5.11,15.19,14.47,28.93,8.85,13,13.27,19.49,19.88,23.5,2.27,1.38,16.47,9.72,32.55,5.43a45,45,0,0,0,14.46-7.24,59.28,59.28,0,0,0,14.46-14.46c2.24-3.19,1.19-2.37,7.24-12.66,5-8.48,5.72-9.07,7.23-12.65,2.21-5.25,3.89-9.24,3.61-14.47-.37-7.1-4.14-12.25-1.8-14.46,1-1,2.2-.41,3.61-1.81s1.44-3.48,1.81-5.42c.81-4.3,3.14-4.27,5.42-9,2.2-4.59,2-8.78,1.81-14.46-.14-3.68-.29-6.68-1.81-7.24-1.72-.63-4.26,2.29-5.42,3.62-5.15,5.91-5.47,11.82-6.69,11.75-2.26-.12-1.12-20.52-7.77-22.6-2.23-.69-3.89,1.15-5.43,0-3.53-2.62,1.3-13.91,0-14.46-1.56-.66-7.13,16.22-14.46,16.27-5.9,0-7.92-10.85-14.47-10.85-6.28,0-10.83,10-12.65,9-1.55-.86,1.5-8.27,0-9s-5.84,7.82-10.85,7.23c-1.86-.21-2.15-1.51-5.42-3.61a28.44,28.44,0,0,0-9-3.62c-8.88-1.59-21.37,11.34-27.12,25.31-3.71,9-4.13,16.37-5.43,16.27-2.27-.16-.32-22.87-3.67-23.42C394.8,83.12,388,96,392,105.17c.33.73,3.12,7,7.24,7.23C400.78,112.47,402,111.69,402.89,112.4Z" transform="translate(-83.86)"/><path class="cls-7" d="M408.37,18.65c1,6.43,2,7,1.68,8.43-1,5-13.43,5.32-13.48,8.43,0,1.87,4.47,2.11,5.05,5.05s-3.18,6.78-6.74,8.43c-2.57,1.2-5.09,1.3-5.06,1.69s4.33-.51,6.75,1.68c2.74,2.51,2.45,8.64,0,10.12-1.89,1.13-4.69-.69-5.06,0-.48.89,4.69,3,5.06,6.74.28,2.93-2.59,4.45-1.69,6.74.66,1.68,2.4,1.36,3.37,3.37.48,1,.55,2.06,0,5.06a34.41,34.41,0,0,1-1.68,6.74c-2.82,7.57,8.18,26.49,11.8,25.29,1.22-.41.62-2.79,1.68-15.17,1.18-13.74,2.49-17.46,5.06-18.54,2.77-1.18,5.61,1.31,6.74,0,1.79-2.08-4.16-9.51-3.37-10.12.54-.42,3.5,3,8.43,6.74,4.38,3.32,8.11,6.15,10.11,5.06,3.28-1.78-.22-12.85,1.69-13.48s4.76,9.53,10.11,10.11c4.94.53,9-9,10.12-8.43s-3.14,9.14-1.69,10.12c2.14,1.43,15.38-14.62,16.86-13.49.86.66-3.7,6.1-1.69,10.11,1.14,2.27,3.86,3,5.06,3.38,10.51,2.84,19.39-9,24.44-5.9,1.31.8,1.66,2.17,2.53,9.27,1.91,15.59,2,23.47,3.37,23.6,1.09.1,1.9-4,6.74-13.49,2.71-5.33,3.84-6.79,5.06-6.74,2.88.12,4.42,8.58,5.06,8.43S523.06,88.12,523,76c0-.89,0-11.59,1.69-11.8.73-.09,1.61,1.74,1.68,1.69s-4.46-4.76-3.37-8.43c.71-2.37,3.31-2.76,3.37-5.06,0-1.11-.56-1.89-1.68-3.37-3.31-4.37-5-6.55-5.06-6.74-2.27-4.82,2.33-8.76,0-11.8-1.86-2.43-5.7-1.08-6.74-3.37s2.55-4.79,1.68-6.74c-1.53-3.47-14.33.92-16.85-3.38-1.52-2.58,2-6.1,0-8.42C496.37,7,494.1,7.77,491,5.16c-1.15-1-1-1.16-1.68-1.68-3.38-2.44-7.5,2-13.49,1.68-6.52-.35-8-6-13.48-5-3.2.55-3,2.51-6.74,3.37-5.09,1.18-6.88-2.18-11.8-1.69C437.08,2.46,433,9.38,432,8.54s2.83-5.65,1.68-6.75c-.88-.84-4.56.59-6.74,3.37-2.4,3.07-1.46,5.84-3.37,6.75-2.46,1.16-6-2.48-6.75-1.69-1,1,4.46,7.2,3.38,8.43-1.25,1.42-9.84-5.32-11.8-3.37C408,15.62,408,16.15,408.37,18.65Z" transform="translate(-83.86)"/></svg>