<svg id="Camada_1" data-name="Camada 1" xmlns="http://www.w3.org/2000/svg" viewBox="0 0 974 408.12"><defs><style>.cls-1,.cls-4{fill:#fff;}.cls-1{stroke:#000;stroke-miterlimit:10;stroke-width:3px;}.cls-2{fill:#76291f;}.cls-3{fill:#183e6f;}.cls-5{fill:red;}.cls-6{fill:#dddfde;}.cls-7{fill:#431a28;}.cls-8{fill:#527849;}</style></defs><title>marvel</title><rect class="cls-1" x="1.5" y="1.5" width="971" height="405.12"/><polygon class="cls-2" points="31.63 32.82 106.64 32.82 134.76 204.06 158.87 32.82 236.55 32.82 236.55 376.68 174.94 376.68 176.28 213.8 150.83 376.68 117.35 376.68 89.22 213.8 91.9 376.68 31.63 376.68 31.63 32.82"/><path class="cls-3" d="M240.05,686.1h53.57l6.7-52.9h45.53l6.7,52.9H415.5L364.6,342.24H284.25L234.34,686.1Z" transform="translate(-3.5 -309.42)"/><polygon class="cls-4" points="303.51 266.7 337 266.7 320.93 124.7 303.51 266.7"/><polygon class="cls-5" points="541.91 32.82 594.14 376.68 665.13 376.68 717.36 32.82 655.75 32.82 628.97 237.47 603.52 32.82 541.91 32.82"/><polygon class="cls-6" points="821.83 32.82 821.83 98.25 772.27 98.25 772.27 172.04 821.83 172.04 821.83 234.69 772.27 234.69 772.27 312.64 821.83 312.64 821.83 376.68 709.33 376.68 709.33 32.82 821.83 32.82"/><polygon class="cls-7" points="829.44 32.82 885.7 32.82 885.7 312.64 939.27 312.64 939.27 376.68 829.44 376.68 829.44 32.82"/><path class="cls-8" d="M407.46,342.24V686.1h57.59v-110L479.79,572,509.25,686.1h57.59l-37.5-136.43A110.13,110.13,0,0,0,550.77,526c23.39-34.94,20-73.39,18.75-83.53-.92-7.59-7.93-59.18-48.22-84.92-21.46-13.71-44.57-15.11-71-16.71A232.15,232.15,0,0,0,407.46,342.24Z" transform="translate(-3.5 -309.42)"/><path class="cls-4" d="M463.71,402.11c4.32.48,23.1,3.08,34.83,19.49,11.21,15.69,8.53,33.63,6.69,45.94-1.66,11.11-4.3,28.79-18.75,39a40.05,40.05,0,0,1-22.77,7Z" transform="translate(-3.5 -309.42)"/></svg>