<svg id="Camada_1" data-name="Camada 1" xmlns="http://www.w3.org/2000/svg" viewBox="0 0 969.16 694"><defs><style>.cls-1{fill:#a01822;}.cls-2{fill:#c4c7d6;}.cls-3{fill:#edbda9;}.cls-4{fill:#524648;}.cls-5{fill:#183e6f;}.cls-6{fill:#4d4449;}.cls-7{fill:#fffef6;}.cls-8{fill:#fff;}.cls-10,.cls-11,.cls-9{fill:none;stroke-miterlimit:10;}.cls-9{stroke:#42210b;}.cls-10{stroke:#c1a399;}.cls-11{stroke:#720000;}</style></defs><title>steven</title><path class="cls-1" d="M887.11,405.12c2.91-3.4,8.16-3,20-11.41,2.87-2.06,4.62-3.55,5.64-5.15l3.58.13,6.74,6.06a8.82,8.82,0,0,0,3.15,1.16,7.85,7.85,0,0,0,1.74.07l.06,2.37a27.36,27.36,0,0,0,21,18l1.33,1.76a27.21,27.21,0,0,0-2.78,2.22c-5.68,5.11-4.49,7.5-12.95,21.87-7.56,12.84-11.35,19.27-15.23,20a6.24,6.24,0,0,1-1.22.13c.2-.14.39-.27.58-.42a56.68,56.68,0,0,1-22.25-18.32c-1-1.43-2-2.87-2.79-4.31a3.54,3.54,0,0,1-.19-.33c-.7-1.26-1.38-2.56-2-3.86v0A58.92,58.92,0,0,1,886,407l-.14.13A7.89,7.89,0,0,1,887.11,405.12Z" transform="translate(-5 -155)"/><path class="cls-1" d="M919.91,351.93a6.14,6.14,0,0,0-.79-.72l-.25-.18c-.11.19-.21.38-.3.56ZM910,372.12c-.94-2.63-2-5.72-3.2-10.05s-1.45-6.7-.62-9.09c.33-.92,1.26-3.55,3.65-4.57,3.38-1.44,7.29,1.32,9,2.6a30.83,30.83,0,0,1,12.38-12.51c3-1.58,10-5.31,14.72-2.49,3.68,2.23,2.75,6.61,6.77,8.39,3.15,1.4,4.65-.89,8.78.27,3,.82,7.21,3.38,8,7.85.64,3.74-3.34,4.74-3.18,8.69.19,4.63,5.4,5.05,6.14,10.14.65,4.52-3.18,6.14-2.08,11.06.55,2.48,1.61,2.44,2.74,5.94a20.05,20.05,0,0,1,.93,8.22c-.62,4.39-3.73,7.42-7.94,10.89-8.36,6.93-11.9,8-15.75,10.7L949,416.4a27.36,27.36,0,0,1-21-18l-.06-2.37a7.85,7.85,0,0,1-1.74-.07,8.82,8.82,0,0,1-3.15-1.16l-6.74-6.06-3.58-.13a7.21,7.21,0,0,0,1-2.27C914.18,384.56,914,383.07,910,372.12Z" transform="translate(-5 -155)"/><path class="cls-1" d="M919.12,351.21a6.14,6.14,0,0,1,.79.72l-1.34-.34c.09-.18.19-.37.3-.56Z" transform="translate(-5 -155)"/><path class="cls-1" d="M896.49,443.68A56.68,56.68,0,0,0,918.74,462c-.19.15-.38.28-.58.42-7.57.22-17.45-10.56-24.46-23.05C894.54,440.81,895.46,442.25,896.49,443.68Z" transform="translate(-5 -155)"/><path class="cls-1" d="M886,407a58.92,58.92,0,0,0,5.45,28.13c-5.31-10.72-8.21-21.91-5.59-28Z" transform="translate(-5 -155)"/><polygon class="cls-2" points="786.52 46.61 755.65 56.4 756.71 50.81 775.37 44.49 744.54 22.83 743.53 17.66 784.36 45.14 786.52 46.61"/><path class="cls-3" d="M786.91,255.12a2.31,2.31,0,0,0-.94-2.71,1.93,1.93,0,0,0-1-.25l1-2.74a7,7,0,0,1,2.07.93,7.26,7.26,0,0,1,2.84,4l.52,2.2a7.32,7.32,0,0,0-2.76,1.13Z" transform="translate(-5 -155)"/><path class="cls-4" d="M785.59,254.17c.43-.25.86-.32.95-.15s-.18.48-.62.73-.85.33-1,.17S785.16,254.42,785.59,254.17Z" transform="translate(-5 -155)"/><path class="cls-3" d="M786.54,254c-.09-.17-.52-.1-.95.15s-.72.59-.63.75.52.09,1-.17S786.64,254.17,786.54,254Zm-2.64-1.61a2.52,2.52,0,0,1,1.09-.25,1.93,1.93,0,0,1,1,.25,2.31,2.31,0,0,1,.94,2.71l-3,1.41Z" transform="translate(-5 -155)"/><path class="cls-3" d="M785,252.16a2.52,2.52,0,0,0-1.09.25v4.12l3-1.41,1.74,2.55c-2.07,1.45-1.61,2.77-4,4.91-1.06.94-2.8,2.51-4.14,2-1.85-.66-1.81-4.9-1.87-7.48-.09-4.34-.16-7.29,2-9,3.1-2.59,9.3-1.27,11.58,2.28.87,1.35,1.57,3.65.62,5.25a2,2,0,0,1-1.38.91l-.52-2.2a7.26,7.26,0,0,0-2.84-4,7,7,0,0,0-2.07-.93Z" transform="translate(-5 -155)"/><path class="cls-3" d="M782,282.89c1.81,1,2.43,4.23,1.41,5.09-.63.52-1.85.17-2.55-.33a3.2,3.2,0,0,1-1.09-3.51l-.07-1.59A3.92,3.92,0,0,1,782,282.89Z" transform="translate(-5 -155)"/><path class="cls-3" d="M779.79,284.14a3.2,3.2,0,0,0,1.09,3.51c.7.5,1.92.85,2.55.33,1-.86.4-4.06-1.41-5.09a3.92,3.92,0,0,0-2.3-.34Zm-25.56,23,.1,2a10.61,10.61,0,0,0-2.13-1.39c-.08-.27-.17-.54-.25-.81q-6.35-20.92-12.67-41.83c5-2.68,10-5.38,15-8.06.77.94,1.53,1.89,2.29,2.84l7.06-5.41q.89,1.61,3.89,7c4,7.16,4.83,8.71,7,10.2a17.94,17.94,0,0,0,8.4,2.89,34.76,34.76,0,0,0,6.39.3l.88.58a93.88,93.88,0,0,0-.06,12.38,4.92,4.92,0,0,1-.32,2.54,5.51,5.51,0,0,1-3.2,2.7c-2.1.62-4.09-.3-5.55-1-2.51-1.17-2.93-2.3-4.12-2.08-.39.07-.91.29-3,3.49-1.93,2.87-1.75,3-2.57,3.79-.26.25-2.85,2.54-5.41,1.89-1.19-.32-1.74-1.09-2.21-.82s.08,1.68-.18,3.34c-.47,3.09-3.77,4.79-4,4.91A8,8,0,0,1,754.23,307.11Z" transform="translate(-5 -155)"/><polygon class="cls-2" points="744.53 25.52 767.81 41.2 772.05 44.06 764.07 46.77 763.7 42.93 747.51 32.03 744.53 25.52"/><polygon class="cls-2" points="758.4 45.66 748.49 38.99 747.49 33.81 761.71 43.39 762.94 46.91 757.97 48.95 758.4 45.66"/><path class="cls-5" d="M764.1,254l.21.29h-.57Z" transform="translate(-5 -155)"/><path class="cls-6" d="M752.49,238.13,764.1,254l-.36.28-.19,0c-.21-.38-.32-.56-.33-.57-5.61-8.6-11.78-11-12.29-14.83Z" transform="translate(-5 -155)"/><path class="cls-6" d="M763.74,254.32l-.13.1a.67.67,0,0,1-.06-.12Z" transform="translate(-5 -155)"/><path class="cls-6" d="M763.55,254.3,754,254l-7.86-12.76,4.76-2.38c.51,3.81,6.68,6.23,12.29,14.83C763.23,253.74,763.34,253.92,763.55,254.3Z" transform="translate(-5 -155)"/><path class="cls-5" d="M751.11,237.11c.42-1.1,1.38-1.38,2.54-4.39a16.47,16.47,0,0,0,1.31-8.09,13.36,13.36,0,0,0-2.54-6.29l3.05-2.18,3.59,5,7.85,17,5.24,18.33,9.16,13.08,7.93,5.17a34.76,34.76,0,0,1-6.39-.3,17.94,17.94,0,0,1-8.4-2.89c-2.12-1.49-2.93-3-7-10.2q-3-5.36-3.89-7l.13-.1h.57l-.21-.29.19-.14-11.58-18.1C752.17,236.23,751.64,236.66,751.11,237.11Z" transform="translate(-5 -155)"/><path class="cls-6" d="M748.59,247.35l6.54,9.17-.87.47-7.19-8.94Z" transform="translate(-5 -155)"/><path class="cls-6" d="M747.07,248.05l7.19,8.94c-5,2.68-10,5.38-15,8.06-.34-1.11-.67-2.21-1-3.33-.23-.78-.52-1.59-.86-2.44a32.53,32.53,0,0,0-1.45-3.21l-1.34-2.26Q740.85,250.92,747.07,248.05Z" transform="translate(-5 -155)"/><path class="cls-6" d="M752,306.88c.08.27.17.54.25.81a10.61,10.61,0,0,1,2.13,1.39l.2,3.75-6.74-.85-1.13-3.33c1.73-.58,3.46-1.17,5.2-1.74Z" transform="translate(-5 -155)"/><path class="cls-6" d="M752.71,235.8l11.58,18.1-.19.14-11.61-15.91-1.56.77a4.05,4.05,0,0,1,0-1.1,3.26,3.26,0,0,1,.18-.69C751.64,236.66,752.17,236.23,752.71,235.8Z" transform="translate(-5 -155)"/><path class="cls-6" d="M749,321.34c.12.3-.29.71-.88.93s-1.16.16-1.27-.14.29-.72.88-.93S748.86,321,749,321.34Z" transform="translate(-5 -155)"/><path class="cls-6" d="M748.34,318c.13.29-.21.75-.79,1s-1.13.28-1.28,0,.21-.74.79-1S748.2,317.76,748.34,318Z" transform="translate(-5 -155)"/><path class="cls-5" d="M747.88,212.68s0,0,0,.06a12.87,12.87,0,0,0-.94-1A12.69,12.69,0,0,1,747.88,212.68Z" transform="translate(-5 -155)"/><path class="cls-6" d="M747.79,312l.12.37a9.17,9.17,0,0,1-2.66,3.95,9.27,9.27,0,0,1-3.55,1.93c-.53-1.8-1.07-3.59-1.59-5.38l.22-1.81Z" transform="translate(-5 -155)"/><path class="cls-6" d="M749,321.34c-.11-.3-.68-.36-1.27-.14s-1,.63-.88.93.68.36,1.27.14S749.09,321.64,749,321.34Zm-1.42-2.28c.58-.27.92-.73.79-1s-.72-.28-1.28,0-.92.73-.79,1S747,319.34,747.55,319.06Zm5.54,1.65c-.26.57-6.33,5.32-12.08,3.6-3.18-.94-4.84-3.41-10.86-14.55l9.24,1.16.94.12-.22,1.81c.52,1.79,1.06,3.58,1.59,5.38a9.27,9.27,0,0,0,3.55-1.93,9.17,9.17,0,0,0,2.66-3.95l-.12-.37,6.74.85-.2-3.75a3.9,3.9,0,0,1,1.51,2.45c.21,1.62-1.07,2.47-2.1,6.17C753.16,319.84,753.48,319.89,753.09,320.71Z" transform="translate(-5 -155)"/><path class="cls-5" d="M747,211.74l-.36-.33Z" transform="translate(-5 -155)"/><path class="cls-6" d="M748.59,247.35l-1.52.7c-1.24-1.55-2.47-3.08-3.72-4.62l7.76-6.32a3.26,3.26,0,0,0-.18.69,4.05,4.05,0,0,0,0,1.1l-4.76,2.38L754,254l9.52.26a.67.67,0,0,0,.06.12l-7.06,5.41c-.76-.95-1.52-1.9-2.29-2.84l.87-.47Z" transform="translate(-5 -155)"/><path class="cls-3" d="M746.26,211.1l-.49-.37Z" transform="translate(-5 -155)"/><path class="cls-3" d="M745.77,210.73c-.18-.14-.38-.27-.57-.42C745.39,210.44,745.59,210.58,745.77,210.73Z" transform="translate(-5 -155)"/><path class="cls-3" d="M744.49,209.88l-.73-.39C744,209.62,744.26,209.74,744.49,209.88Z" transform="translate(-5 -155)"/><path class="cls-5" d="M743.76,209.49a13.79,13.79,0,0,0-1.7-.69A11.67,11.67,0,0,1,743.76,209.49Z" transform="translate(-5 -155)"/><path class="cls-5" d="M742.06,208.8a15.51,15.51,0,0,0-2.42-.57A11.84,11.84,0,0,1,742.06,208.8Z" transform="translate(-5 -155)"/><path class="cls-5" d="M739.64,208.23l-.75-.08C739.11,208.17,739.36,208.19,739.64,208.23Z" transform="translate(-5 -155)"/><path class="cls-3" d="M736.78,239.32c-2.73-2.23-2.24-6.36-3.13-7.62h2.06a2.87,2.87,0,0,1,2.54-2.21.91.91,0,0,1,.33,0,2.5,2.5,0,0,1,2,2.08c.21,1.54-1.64,2-2.08,4.12s1.07,4,.46,4.45C738.59,240.44,737.53,239.92,736.78,239.32Z" transform="translate(-5 -155)"/><path class="cls-6" d="M739.39,310.92l-9.24-1.16c-.38-.7-.79-1.43-1.19-2.2a5.6,5.6,0,0,1,0-1.31,2.11,2.11,0,0,1,1.3-1.31c1.25-.43,1.86,1,3.93,1.31,1.81.29,2.49-.61,3.93,0,1.19.51,1.5,1.45,1.69,1.39Z" transform="translate(-5 -155)"/><path class="cls-3" d="M733.65,231.7a.86.86,0,0,0-.48-.34c-1.15-.28-2.25,2.26-3.34,1.88-.77-.26-.93-1.76-1.1-3.49a21,21,0,0,1,0-4.12,16.57,16.57,0,0,1,1.3-6,13.28,13.28,0,0,1,2.24-3.32,9.36,9.36,0,0,1,4.31-3.33,6.4,6.4,0,0,1,4.12,0,6.17,6.17,0,0,1,3.64,3.82,6.37,6.37,0,0,1-.17,3.34,10.89,10.89,0,0,1-2.41,4.59,10.49,10.49,0,0,1-3.19,2.7l-.51.25.17,1.81a2.87,2.87,0,0,0-2.54,2.21Z" transform="translate(-5 -155)"/><path class="cls-3" d="M729.83,233.24c1.09.38,2.19-2.16,3.34-1.88a.86.86,0,0,1,.48.34c.89,1.26.4,5.39,3.13,7.62.75.6,1.81,1.12,2.23.81.61-.49-.92-2.23-.46-4.45s2.29-2.58,2.08-4.12a2.5,2.5,0,0,0-2-2.08.91.91,0,0,0-.33,0l-.17-1.81.51-.25a10.49,10.49,0,0,0,3.19-2.7,10.89,10.89,0,0,0,2.41-4.59,6.37,6.37,0,0,0,.17-3.34,6.17,6.17,0,0,0-3.64-3.82,6.4,6.4,0,0,0-4.12,0,9.36,9.36,0,0,0-4.31,3.33,13.28,13.28,0,0,0-2.24,3.32,16.57,16.57,0,0,0-1.3,6,21,21,0,0,0,0,4.12C728.9,231.48,729.06,233,729.83,233.24Zm-3.15,6.39a22.67,22.67,0,0,1-2.41-7.35c-2.16-11.29,2.19-18.86,2.79-19.53a14.29,14.29,0,0,1,1.75-1.59c.41-.28.89-.62,1.47-1a17.36,17.36,0,0,1,1.88-.92,15.54,15.54,0,0,1,6.35-1.15l.38,0,.75.08a15.51,15.51,0,0,1,2.42.57,13.79,13.79,0,0,1,1.7.69l.73.39.71.43c.19.15.39.28.57.42l.49.37.35.31.36.33a12.87,12.87,0,0,1,.94,1,11.07,11.07,0,0,1,2,7.1c-.21,2-1,2.59-3.38,8.09-1.28,2.91-1,2.68-2.25,5.39-1.92,4.34-2.89,6.51-4.16,8.24a26.88,26.88,0,0,1-7.5,6.74l.47-.42a1.61,1.61,0,0,1-.86.13c-1.22-.2-1.69-2-2.62-3.93s-1.52-2.11-2.62-3.92C726.89,240,726.78,239.8,726.68,239.63Z" transform="translate(-5 -155)"/><path class="cls-6" d="M731.57,255.21c1-.47,2-1,3-1.4l1.34,2.26a32.53,32.53,0,0,1,1.45,3.21c.34.85.63,1.66.86,2.44.34,1.12.67,2.22,1,3.33l-1.16.63Z" transform="translate(-5 -155)"/><path class="cls-3" d="M734.62,253.81c-2.76-4.66-5.44-9.37-8.16-14.05l.22-.13c.1.17.21.34.31.53,1.1,1.81,1.63,1.92,2.62,3.92s1.4,3.73,2.62,3.93a1.61,1.61,0,0,0,.86-.13l-.47.42a26.88,26.88,0,0,0,7.5-6.74c1.27-1.73,2.24-3.9,4.16-8.24,1.21-2.71,1-2.48,2.25-5.39,2.42-5.5,3.17-6.11,3.38-8.09a11.07,11.07,0,0,0-2-7.1c.6.64,1.19,1.37,1.86,2.18,1,1.18,1.88,2.29,2.65,3.42a13.36,13.36,0,0,1,2.54,6.29,16.47,16.47,0,0,1-1.31,8.09c-1.16,3-2.12,3.29-2.54,4.39l-7.76,6.32c1.25,1.54,2.48,3.07,3.72,4.62Q740.83,250.93,734.62,253.81Z" transform="translate(-5 -155)"/><path class="cls-6" d="M729.47,277.89c-6.93-15.39-5-12.87-9.13-21.34-1.7-3.54-9-16-19.45-32.61l2.45.27c1,.1,2.34.17,4.14.2,4.59.07,7.25-.42,9-1.06,3.49,5.37,6.76,10.86,10,16.41,2.72,4.68,5.4,9.39,8.16,14.05-1,.45-2,.93-3,1.4l6.55,10.47,1.16-.63Q745.63,286,752,306.88l-.09,0c-1.74.57-3.47,1.16-5.2,1.74l1.13,3.33-7.46-.94-.94-.12.42-3.28C740.3,307.43,739.47,300.11,729.47,277.89Z" transform="translate(-5 -155)"/><path class="cls-3" d="M727.06,212.75c-.6.67-4.95,8.24-2.79,19.53a22.67,22.67,0,0,0,2.41,7.35l-.22.13c-3.24-5.55-6.51-11-10-16.41a8.58,8.58,0,0,0,2.14-1.11c3.18-2.23,2.79-4.35,7-8.39,2.21-2.11,4.94-4.7,9.24-5.51a14.22,14.22,0,0,1,3.64-.21,15.54,15.54,0,0,0-6.35,1.15,17.36,17.36,0,0,0-1.88.92c-.58.34-1.06.68-1.47,1A14.29,14.29,0,0,0,727.06,212.75Z" transform="translate(-5 -155)"/><path class="cls-6" d="M700.72,223.66l15.62-.48.12.17c-1.73.64-4.39,1.13-9,1.06-1.8,0-3.16-.1-4.14-.2l-2.45-.27Z" transform="translate(-5 -155)"/><path class="cls-3" d="M674.87,232.84c3.37,0,2.53-8.52,8.16-11.09,3.64-1.65,6.5.75,17.86,2.19,10.47,16.65,17.75,29.07,19.45,32.61,4.11,8.47,2.2,5.95,9.13,21.34,10,22.22,10.83,29.54,10.34,29.75-.19.06-.5-.88-1.69-1.39-1.44-.61-2.12.29-3.93,0-2.07-.33-2.68-1.74-3.93-1.31a2.11,2.11,0,0,0-1.3,1.31,5.6,5.6,0,0,0,0,1.31c.4.77.81,1.5,1.19,2.2l-12.32-1.55-.89-.86.89-.44-53.33-52L672,232.3l.45-.63A3.58,3.58,0,0,0,674.87,232.84Z" transform="translate(-5 -155)"/><path class="cls-5" d="M683,221.75c-5.63,2.57-4.79,11.05-8.16,11.09a3.58,3.58,0,0,1-2.4-1.17l15.91-22.27,15.71-3.93L725,201.54,746,202.85l9.5,13.31-3.05,2.18c-.77-1.13-1.69-2.24-2.65-3.42-.67-.81-1.26-1.54-1.86-2.18,0,0,0,0,0-.06a12.69,12.69,0,0,0-.91-.94l-.36-.33-.35-.31-.49-.37c-.18-.15-.38-.29-.57-.42l-.71-.43c-.23-.14-.48-.26-.73-.39a11.67,11.67,0,0,0-1.7-.69,11.84,11.84,0,0,0-2.42-.57c-.28,0-.53-.06-.75-.08l-.38,0a14.22,14.22,0,0,0-3.64.21c-4.3.81-7,3.4-9.24,5.51-4.24,4-3.85,6.16-7,8.39a8.58,8.58,0,0,1-2.14,1.11l-.12-.17-15.62.48.17.28C689.53,222.5,686.67,220.1,683,221.75Z" transform="translate(-5 -155)"/><path class="cls-5" d="M780.51,264.62c1.34.47,3.08-1.1,4.14-2,2.39-2.14,1.93-3.46,4-4.91a7.32,7.32,0,0,1,2.76-1.13,2,2,0,0,0,1.38-.91c1-1.6.25-3.9-.62-5.25-2.28-3.55-8.48-4.87-11.58-2.28-2.11,1.75-2,4.7-2,9C778.7,259.72,778.66,264,780.51,264.62Zm-31-86.79,30.83,21.66-18.65,6.32-1.06,5.59,30.86-9.79-2.16-1.47-40.82-27.48Zm3,11,1,5.18,9.9,6.66L763,204l5-2-1.23-3.52Zm0-1.78,16.19,10.9.37,3.84,8-2.71-4.24-2.86-23.28-15.68ZM670,224.71c.72-3.62,4.76-3.73,8.3-8.22,3.11-3.94,2.65-7.25,4-13.17,1.87-8,5.42-13.48,8.74-18.62a66.43,66.43,0,0,1,22.34-20.86c5.21-3,17-9.71,32.12-8.75,13.5.87,22.45,7.5,34.56,16.36,14,10.31,21.43,20.83,25,26.89,4.87,8.13,6.11,13.41,6.59,16.86.89,6.32-.08,10.9-1.5,17.63-3.89,18.25-12.65,29.6-15.32,31.46a3.46,3.46,0,0,0-1,1c-1.52,2.44,1.5,5.2.6,7.32-.62,1.45-2.85,2-5.21,2.14l-7.93-5.17-9.16-13.08-5.24-18.33-7.85-17-3.59-5L746,202.85,725,201.54l-20.94,3.93-15.71,3.93-15.91,22.27A8.24,8.24,0,0,1,670,224.71Z" transform="translate(-5 -155)"/><polygon class="cls-5" points="711.94 152.35 659.17 100.86 659.49 99.87 712.83 151.91 711.94 152.35"/><path class="cls-1" d="M620.44,431.89q-38.7,29.08-77.35,58.19L542,489.5l76.38-58.26C619,431.44,619.67,431.66,620.44,431.89Z" transform="translate(-5 -155)"/><path class="cls-1" d="M584,414.57l.76-.75,37.11,17-1.41,1.06c-.77-.23-1.47-.45-2.08-.65L542,489.5l-1.9-1-12.4-18.79Z" transform="translate(-5 -155)"/><polygon class="cls-7" points="561.44 198.34 590.18 186.79 594.86 154.26 617.15 180.66 648.74 178.54 633.76 206.42 648.61 237.62 617.06 228.46 594.65 249.87 590.13 216.33 561.44 198.34"/><path class="cls-7" d="M585,413.57c-.07.08-.17.16-.24.25l-2.69-1.23-.94.63q-16.17-7.56-32.34-15.1l.86-1Z" transform="translate(-5 -155)"/><path class="cls-7" d="M584.74,413.82l-.76.75-2.87-1.35.94-.63Z" transform="translate(-5 -155)"/><path class="cls-7" d="M526.09,467.33,509.4,442.05q19.7-22,39.37-43.93,16.15,7.56,32.34,15.1c-19.58,13.16-25.63,19.24-27.07,22.28,0,.09-2.95,5.13-5.31,6.79-1.87,1.32-2.64,1.15-4.07,2.64-2.42,2.54-2.36,5.31-4,5.45-1.16.1-1.65-1.31-2.83-1.49-2.9-.45-5.77,7.42-6.61,9.53A35.69,35.69,0,0,1,526.09,467.33Z" transform="translate(-5 -155)"/><path class="cls-7" d="M549.63,397.16l-.86,1-1.26-.59.83-1Z" transform="translate(-5 -155)"/><path class="cls-1" d="M543.76,645.89,522.3,592.83a68.11,68.11,0,0,1,3.79-6.49l0-.08,40.55,10.55a129.26,129.26,0,0,0-15,25.52A127.45,127.45,0,0,0,543.76,645.89Z" transform="translate(-5 -155)"/><path class="cls-1" d="M542,489.5l-.84.64-1.06-1.6Z" transform="translate(-5 -155)"/><path class="cls-1" d="M527.68,469.75l12.4,18.79c-3.09-1.54-6.56-3.2-10.55-5q-5.73-2.59-11-4.84Z" transform="translate(-5 -155)"/><path class="cls-1" d="M528.7,387.4l21,9.66s-.06.06-.09.1l-1.29-.6-.83,1-18.77-8.77c.24-.24.46-.45.7-.67l-1-.47C528.55,387.54,528.63,387.48,528.7,387.4Z" transform="translate(-5 -155)"/><path class="cls-1" d="M543.76,645.89l-23.75-48c.74-1.83,1.52-3.52,2.29-5Z" transform="translate(-5 -155)"/><path class="cls-1" d="M520,597.88l23.75,48a204.25,204.25,0,0,0-26.55-6.16l.17-1.12A64.61,64.61,0,0,1,520,597.88Z" transform="translate(-5 -155)"/><path class="cls-1" d="M529.44,388.09c-.24.22-.46.43-.7.67l-1-.47c.24-.21.47-.43.72-.67Z" transform="translate(-5 -155)"/><path class="cls-7" d="M528.47,387.62c-.25.24-.48.46-.72.67q-9.86-4.59-19.71-9.22l1-.83-.23-.11.08-.05Z" transform="translate(-5 -155)"/><path class="cls-7" d="M584,414.57l-56.3,55.18-1.59-2.42a35.69,35.69,0,0,0,5.15-8.91c.84-2.11,3.71-10,6.61-9.53,1.18.18,1.67,1.59,2.83,1.49,1.62-.14,1.56-2.91,4-5.45,1.43-1.49,2.2-1.32,4.07-2.64,2.36-1.66,5.27-6.7,5.31-6.79,1.44-3,7.49-9.12,27.07-22.28Z" transform="translate(-5 -155)"/><path class="cls-7" d="M526.09,467.33l1.59,2.42-9.11,8.94-3.15-1.34A51,51,0,0,0,526.09,467.33Z" transform="translate(-5 -155)"/><path class="cls-1" d="M526.11,586.26l0,.08a68.11,68.11,0,0,0-3.79,6.49l-3.41-8.45Z" transform="translate(-5 -155)"/><path class="cls-1" d="M547.51,397.53c-13.78,16.15-24.46,27.14-31.89,34.37-1.74,1.69-3.76,3.61-6.55,6.54l-1.2,1.29-12.71-19.26,33.58-31.71Z" transform="translate(-5 -155)"/><path class="cls-1" d="M518.89,584.38l3.41,8.45c-.77,1.53-1.55,3.22-2.29,5l-6.83-13.8,4,.19.43.11,0-.08Z" transform="translate(-5 -155)"/><path class="cls-7" d="M515.42,477.35l3.15,1.34-.34.33-1.74-.29-1.44-1.11C515.17,477.52,515.3,477.45,515.42,477.35Z" transform="translate(-5 -155)"/><path class="cls-1" d="M542.05,490.85a71,71,0,0,1-14.38-5.28,72.71,72.71,0,0,1-11.18-6.84l1.74.29.34-.33q5.23,2.25,11,4.84c4,1.81,7.46,3.47,10.55,5l1.06,1.6.84-.64,1.11.58C542.75,490.32,542.4,490.59,542.05,490.85Z" transform="translate(-5 -155)"/><path class="cls-1" d="M517.54,584.3l0,.08-.43-.11Z" transform="translate(-5 -155)"/><path class="cls-7" d="M515.62,431.9c7.43-7.23,18.11-18.22,31.89-34.37l1.26.59q-19.68,22-39.37,43.93l-1.53-2.32,1.2-1.29C511.86,435.51,513.88,433.59,515.62,431.9Z" transform="translate(-5 -155)"/><path class="cls-7" d="M509.4,442.05l16.69,25.28a51,51,0,0,1-10.67,10c-12.49-5.28-22.29-9-27.85-10.94Q498.49,454.25,509.4,442.05Z" transform="translate(-5 -155)"/><path class="cls-5" d="M517.15,584.27l-4-.19-.42-.83Z" transform="translate(-5 -155)"/><path class="cls-7" d="M509.07,378.24l-1,.83-.37-.15c.39-.26.77-.53,1.17-.79Z" transform="translate(-5 -155)"/><path class="cls-1" d="M507.67,378.92q-13.5-6.33-27-12.62l1.63-.24,26.53,12.07C508.44,378.39,508.06,378.66,507.67,378.92Z" transform="translate(-5 -155)"/><path class="cls-1" d="M528.74,388.76l-33.58,31.71-.29-.46c.76-.77,1.64-1.66,2.71-2.76,3.48-3.56,11.43-11.31,30.17-29Z" transform="translate(-5 -155)"/><path class="cls-7" d="M527.75,388.29c-18.74,17.65-26.69,25.4-30.17,29-1.07,1.1-1.95,2-2.71,2.76l-13-19.64L508,379.07Q517.9,383.69,527.75,388.29Z" transform="translate(-5 -155)"/><path class="cls-7" d="M487.2,466.28a183.1,183.1,0,0,1,20.67-26.55l1.53,2.32q-10.92,12.18-21.83,24.36Z" transform="translate(-5 -155)"/><path class="cls-7" d="M508,379.07l-26.14,21.3-.43-.66,23.48-19,2.72-1.83Z" transform="translate(-5 -155)"/><path class="cls-7" d="M499.91,473.78a77.47,77.47,0,0,1-12.75-6.91c.13-.16.26-.3.41-.46,5.56,2,15.36,5.66,27.85,10.94-.12.1-.25.17-.37.27l1.44,1.11A77,77,0,0,1,499.91,473.78Z" transform="translate(-5 -155)"/><path class="cls-7" d="M480.53,398.29Q493,388.84,505,380.75l-23.48,19Z" transform="translate(-5 -155)"/><path class="cls-7" d="M487.16,466.87l-.23-.16.27-.43.37.13C487.42,466.57,487.29,466.71,487.16,466.87Z" transform="translate(-5 -155)"/><path class="cls-1" d="M322,653.26c63.07-40.06,92.22-62.81,96.25-66a30.29,30.29,0,0,0,5.08,1.59c1.69.38,6.95.25,17.47,0,3.95-.09,7.49-.33,10.69-.66a193,193,0,0,0,20-3.07l1.53-.32c5.56-1.21,17-1.83,40.1-.7l6.83,13.8a64.61,64.61,0,0,0-2.63,40.73l-.17,1.12q-3.5-.57-6.5-1c-9.39-1.22-16.82-1.5-18.59-1.56-16.36-.47-24.93,1.92-49.95-1.13-13.67-1.68-19.39-3.39-29.57-1.35-12.59,2.51-22.45,8.88-29.57,13.49a104.79,104.79,0,0,0-20.15,16.2c-15.92,16.68-14.73,27.65-28.22,33.75-2.78,1.25-9.79,4.3-16.13,1.34-6.17-2.89-8.36-9.92-9.41-13.49-2.44-8.31-2-17.89.76-27.38Z" transform="translate(-5 -155)"/><path class="cls-5" d="M481,365.46l1.35.6-1.63.24-1.11.16v-.07c.07-.09.15-.18.22-.29l-.23.19c0-.24,0-.46,0-.7l.75-.44Z" transform="translate(-5 -155)"/><path class="cls-5" d="M479.79,366.1c-.07.11-.15.2-.22.29s0-.06,0-.1Z" transform="translate(-5 -155)"/><path class="cls-1" d="M479.57,366.39c-2.62,3.27-4.79,4.44-8,6l7.95-6.14S479.57,366.35,479.57,366.39Z" transform="translate(-5 -155)"/><path class="cls-5" d="M477,287.27a46.06,46.06,0,0,1-15.71-6.54,45,45,0,0,1-6.54-5.24,58.73,58.73,0,0,0-8.42-3.57,137,137,0,0,0-9.75-22.51A18.1,18.1,0,0,1,441,246c8.07-4.33,17-.6,18.33,0,19.38,8.51,20,41.48,17.91,42.25,0,0-.07,0-.19,0C477.05,287.94,477,287.6,477,287.27Z" transform="translate(-5 -155)"/><path class="cls-5" d="M551,255.8V356.34l-68.64,9.72-1.35-.6q-2-38.61-3.9-77.19c.12,0,.17,0,.19,0,2.07-.77,1.47-33.74-17.91-42.25-1.36-.6-10.26-4.33-18.33,0a18.1,18.1,0,0,0-4.42,3.37,137.65,137.65,0,0,0-8.3-13.43l54-10.22Z" transform="translate(-5 -155)"/><path class="cls-1" d="M466.21,376.6l5.4-4.17c3.17-1.6,5.34-2.77,8-6v.07l1.11-.16q13.5,6.3,27,12.62L505,380.75q-11.91,8.1-24.42,17.54Z" transform="translate(-5 -155)"/><path class="cls-1" d="M466.21,376.6l-.6-.92c2.42-1.45,4.34-2.42,6-3.25Z" transform="translate(-5 -155)"/><path class="cls-1" d="M471.61,372.43c-1.66.83-3.58,1.8-6,3.25l-.61-.93c5-3.37,9.87-6.41,14.53-9.16,0,.24,0,.46,0,.7Z" transform="translate(-5 -155)"/><path class="cls-1" d="M466.21,376.6l-23.46,18.11A128.31,128.31,0,0,1,452.92,385a99.69,99.69,0,0,1,12.69-9.32Z" transform="translate(-5 -155)"/><path class="cls-5" d="M475,287.93c1.06.19,1.72.31,2,.34q1.94,38.6,3.9,77.19l-.68-.31-.75.44q-2-38.58-3.95-77.14a46.67,46.67,0,0,1-11.94-4.27A39.48,39.48,0,0,0,475,287.93Z" transform="translate(-5 -155)"/><path class="cls-1" d="M458.12,455.47q18.51-17.49,37-35l12.71,19.26a183.1,183.1,0,0,0-20.67,26.55c-3.05-1.09-4.71-1.63-4.71-1.63C472.36,461.31,464.9,459.32,458.12,455.47Z" transform="translate(-5 -155)"/><path class="cls-8" d="M462,283.28l1.1.6C462.66,283.69,462.29,283.48,462,283.28Z" transform="translate(-5 -155)"/><path class="cls-1" d="M495.16,420.47q-18.51,17.52-37,35c-.63-.35-1.24-.72-1.86-1.11,6.92-5.42,16.35-13.14,27-23.08l.39-.36q3.41-3.21,6.14-5.88c1.91-1.86,3.14-3.06,5.09-5Z" transform="translate(-5 -155)"/><path class="cls-5" d="M595.18,341.79l-28.74,11.55,28.69,18,4.53,33.54,22.4-21.41,31.55,9.16-14.85-31.2,15-27.88-31.58,2.12-22.29-26.4Zm-45.46,55.27-21-9.66c-.07.08-.15.14-.23.22l-19.55-9.54-.08.05-26.53-12.07L551,356.34V255.8l-68.63-30-54,10.22a140.64,140.64,0,0,0-32.51-33.17c1.92-1.29,3.72-2.35,5.31-3.23l62.17,9.82,35.34,18.32Q515.3,229.36,532,231l39.92,30.76,58.89,9.16,32.72-17,1,1-.33,1,52.77,51.49-14.82,7.41a151.64,151.64,0,0,1,17,20.94c3.73,5.54,3.4,5.82,5.23,7.85,10.45,11.61,23.38,4.64,34,13.09a19.38,19.38,0,0,1,3.28,3.56s9.85,12.15,11.12,33.09c0,0,2,3.74,3.43,6,.69,1.1,1.28,2,1.82,2.78L799,441.71a123.23,123.23,0,0,0,86.89-34.55c-2.62,6.09.28,17.28,5.59,28v0c.62,1.29,1.29,2.57,2,3.86a3.54,3.54,0,0,0,.19.33c7,12.49,16.89,23.27,24.46,23.05A266.79,266.79,0,0,1,757.1,513.7a194.56,194.56,0,0,1-57.59-100.78,81.52,81.52,0,0,1-79.07,19l1.41-1.06-37.11-17c.07-.09.17-.17.24-.25l-35.35-16.41S549.7,397.1,549.72,397.06Z" transform="translate(-5 -155)"/><path class="cls-5" d="M543.76,645.89a127.45,127.45,0,0,1,7.85-23.56,129.26,129.26,0,0,1,15-25.52l-40.55-10.55-7.22-1.88-1.35-.08L448.47,450a42.85,42.85,0,0,0,8,5.61,59.17,59.17,0,0,0,30.36,11.54l.29-.31a77.14,77.14,0,0,0,29.33,11.86,72.71,72.71,0,0,0,11.18,6.84,71,71,0,0,0,14.38,5.28c.35-.26.7-.53,1-.77,16.29,8.39,21.45,13.19,41.53,20.45,12.56,4.56,14.24,4,22.85,8.1,18.59,8.83,30,20.46,37.63,28.35,13.48,14,30,31.15,28.22,49.95a42.68,42.68,0,0,1-2.69,10.8c-1.25,3.14-6.06,14-17.47,20.24-3.44,1.89-6.37,2.63-12.09,4a142.38,142.38,0,0,1-26.89,4.06C604,636.49,584.6,638.58,543.76,645.89Z" transform="translate(-5 -155)"/><path class="cls-1" d="M457.43,456.12c-.29-.14-.61-.3-.92-.48l-1-.73.71-.55h0c.62.39,1.23.76,1.86,1.11Z" transform="translate(-5 -155)"/><path class="cls-1" d="M467.2,462a59.59,59.59,0,0,1-10.69-6.35c.31.18.63.34.92.48l.69-.65c6.78,3.85,14.24,5.84,24.37,9.18,0,0,1.66.54,4.71,1.63l-.27.43.23.16-.29.31A59.93,59.93,0,0,1,467.2,462Z" transform="translate(-5 -155)"/><path class="cls-5" d="M448.47,450,517.54,584.3l-.39,0-4.39-1L445.37,447C446.41,448.13,447.45,449.12,448.47,450Z" transform="translate(-5 -155)"/><path class="cls-5" d="M459.74,281.92a45.25,45.25,0,0,1-6.59-5.22,58.76,58.76,0,0,0-6.16-2.78c-.05-.15-.1-.32-.17-.49a11,11,0,0,1,6,2.72,82,82,0,0,0,6.3,5.26q.6.45,1.32.93Z" transform="translate(-5 -155)"/><path class="cls-5" d="M459.09,281.41a82,82,0,0,1-6.3-5.26,11,11,0,0,0-6-2.72c-.14-.5-.31-1-.48-1.51a58.73,58.73,0,0,1,8.42,3.57,45,45,0,0,0,6.54,5.24A46.06,46.06,0,0,0,477,287.27c0,.33,0,.67.05,1-.3,0-1-.15-2-.34a39.48,39.48,0,0,1-11.4-3.75l-.59-.3-1.1-.6c-.51-.3-1-.61-1.54-.94S459.49,281.71,459.09,281.41Z" transform="translate(-5 -155)"/><path class="cls-1" d="M449.13,350.7,436,330.87a123.87,123.87,0,0,0-8.22-60.57c1.19,0,2.42.06,3.68.17.12.15.23.3.35.44,2.67,3,8,1.93,13.16,2.31.68.22,1.34.47,2,.7a140.84,140.84,0,0,1,2.14,76.78Z" transform="translate(-5 -155)"/><path class="cls-7" d="M448.47,450,446.38,446a49.65,49.65,0,0,0,3.85,3.82,46.89,46.89,0,0,0,6,4.57l-.71.55,1,.73A42.85,42.85,0,0,1,448.47,450Z" transform="translate(-5 -155)"/><path class="cls-7" d="M446.38,446l2.09,4.06c-1-.91-2.06-1.9-3.1-3l-3-6A55.62,55.62,0,0,0,446.38,446Z" transform="translate(-5 -155)"/><path class="cls-7" d="M446.38,446l-6-11.74,41.55-33.86,13,19.64c-1.95,2-3.18,3.17-5.09,5s-3.87,3.74-6.14,5.88l-.39.36c-10.64,9.94-20.07,17.66-27,23.08h0a46.89,46.89,0,0,1-6-4.57A49.65,49.65,0,0,1,446.38,446Z" transform="translate(-5 -155)"/><path class="cls-1" d="M446.82,273.43c.07.17.12.34.17.49-.64-.23-1.3-.48-2-.7A15.67,15.67,0,0,1,446.82,273.43Z" transform="translate(-5 -155)"/><path class="cls-7" d="M439.87,433.33l41.6-33.62.43.66-41.55,33.86Z" transform="translate(-5 -155)"/><path class="cls-1" d="M445,273.22c-5.12-.38-10.49.72-13.16-2.31-.12-.14-.23-.29-.35-.44a53.6,53.6,0,0,1,7.13,1A52.6,52.6,0,0,1,445,273.22Z" transform="translate(-5 -155)"/><path class="cls-1" d="M446.34,271.92a53.44,53.44,0,0,0-6-1.66,57.11,57.11,0,0,0-9.65-1.27c-1.89-4.92.28-13.86,5.88-19.58A137,137,0,0,1,446.34,271.92Z" transform="translate(-5 -155)"/><path class="cls-7" d="M439.36,432.33c7.9-7.15,16.34-14.41,25.36-21.7q8-6.47,15.81-12.34l.94,1.42-41.6,33.62Z" transform="translate(-5 -155)"/><path class="cls-7" d="M439.87,433.33l.48.9-.92.76-.46-.93Z" transform="translate(-5 -155)"/><path class="cls-1" d="M440.36,270.26a53.44,53.44,0,0,1,6,1.66c.17.5.34,1,.48,1.51a15.67,15.67,0,0,0-1.81-.21,52.6,52.6,0,0,0-6.38-1.74,53.6,53.6,0,0,0-7.13-1,6.14,6.14,0,0,1-.79-1.48A57.11,57.11,0,0,1,440.36,270.26Z" transform="translate(-5 -155)"/><path class="cls-7" d="M439.36,432.33l.51,1-.9.73-.47-.94Z" transform="translate(-5 -155)"/><path class="cls-7" d="M440.35,434.23l6,11.74a55.62,55.62,0,0,1-4-5l-3-6Z" transform="translate(-5 -155)"/><path class="cls-7" d="M439.43,435l3,6a53.75,53.75,0,0,1-3.48-5.6Z" transform="translate(-5 -155)"/><path class="cls-7" d="M439,434.06l.46.93-.51.4c-.17-.3-.34-.6-.48-.9Z" transform="translate(-5 -155)"/><path class="cls-7" d="M438.5,433.12l.47.94-.53.43c-.18-.3-.32-.6-.48-.89C438.13,433.44,438.32,433.27,438.5,433.12Z" transform="translate(-5 -155)"/><path class="cls-1" d="M434.17,424.36l4.33,8.76c-.18.15-.37.32-.54.48A67.91,67.91,0,0,1,434.17,424.36Z" transform="translate(-5 -155)"/><path class="cls-7" d="M438.44,434.49c.14.3.31.6.48.9l-.52.43c-.36-.53-.71-1.08-1.06-1.66.21-.18.41-.36.62-.56C438.12,433.89,438.26,434.19,438.44,434.49Z" transform="translate(-5 -155)"/><path class="cls-7" d="M443.63,445a42.32,42.32,0,0,1-6.36-10.76l.07-.07c.35.58.7,1.13,1.06,1.66l.52-.43a53.75,53.75,0,0,0,3.48,5.6l3,6C444.8,446.37,444.21,445.69,443.63,445Z" transform="translate(-5 -155)"/><path class="cls-1" d="M464.72,410.63c-9,7.29-17.46,14.55-25.36,21.7l-12.84-25a94.3,94.3,0,0,0,8.93-6.15,70.46,70.46,0,0,0,7.3-6.48l23.46-18.11,14.32,21.69Q472.72,404.17,464.72,410.63Z" transform="translate(-5 -155)"/><path class="cls-1" d="M434.1,424.15c0,.07,0,.13.07.21l-2.84-5.76.09.14Z" transform="translate(-5 -155)"/><path class="cls-1" d="M436.59,249.41c-5.6,5.72-7.77,14.66-5.88,19.58-1.17-.05-2.33-.08-3.45-.05a122.87,122.87,0,0,0-17.54-29.45L428.29,236A137.65,137.65,0,0,1,436.59,249.41Z" transform="translate(-5 -155)"/><path class="cls-1" d="M426.49,407.28l16.26-12.57a70.46,70.46,0,0,1-7.3,6.48,94.3,94.3,0,0,1-8.93,6.15Z" transform="translate(-5 -155)"/><path class="cls-1" d="M427.39,410.64l3.94,8-1.94-2.92-1.45-3.39Z" transform="translate(-5 -155)"/><path class="cls-1" d="M427.94,412.29l1.45,3.39-.65-1C428.46,413.89,428.2,413.09,427.94,412.29Z" transform="translate(-5 -155)"/><path class="cls-1" d="M427.82,270.3c-.17-.46-.37-.92-.56-1.36,1.12,0,2.28,0,3.45.05a6.14,6.14,0,0,0,.79,1.48C430.24,270.36,429,270.32,427.82,270.3Z" transform="translate(-5 -155)"/><path class="cls-5" d="M358.83,448.57a140,140,0,0,0,52.93-32.82c4.54-2.78,9.08-5.55,13.68-8.25a104.87,104.87,0,0,0,11.9,26.66l-.07.07A42.32,42.32,0,0,0,443.63,445c.58.7,1.17,1.38,1.74,2l67.39,136.23c-27.22-6.57-43.24-14.06-53.12-20.08a113.14,113.14,0,0,0-22-9.49l-93.89-33.36a54.9,54.9,0,0,1-6.39-21.93c-1.62-22.55,11.3-38.56,16.13-44.56A38.38,38.38,0,0,1,358.83,448.57Z" transform="translate(-5 -155)"/><path class="cls-1" d="M426.52,407.34l12.84,25-.86.79-4.33-8.76c0-.08,0-.14-.07-.21l-2.68-5.41-.09-.14-3.94-8,.55,1.65-2-4.6Z" transform="translate(-5 -155)"/><path class="cls-1" d="M426.49,407.28l0,.06-.56.35Z" transform="translate(-5 -155)"/><path class="cls-1" d="M426,407.69l2,4.6c.26.8.52,1.6.8,2.41l.65,1,1.94,2.92,2.84,5.76A67.91,67.91,0,0,0,438,433.6c-.21.2-.41.38-.62.56a104.87,104.87,0,0,1-11.9-26.66l.89-.52.16.3Z" transform="translate(-5 -155)"/><path class="cls-1" d="M452.92,385a128.31,128.31,0,0,0-10.17,9.71l-16.26,12.57-.16-.3-.89.52c0-.16-.09-.31-.13-.47a287,287,0,0,1,27.48-23.56c4.15-3.13,8.24-6,12.21-8.72l.61.93A99.69,99.69,0,0,0,452.92,385Z" transform="translate(-5 -155)"/><path class="cls-7" d="M427.82,270.3a59.41,59.41,0,0,0-13.32,1.42c-.16-.39-.33-.79-.51-1.19a62.58,62.58,0,0,1,13.27-1.59C427.45,269.38,427.65,269.84,427.82,270.3Z" transform="translate(-5 -155)"/><path class="cls-7" d="M414.5,271.72a59.41,59.41,0,0,1,13.32-1.42A123.87,123.87,0,0,1,436,330.87l-12.75-19.32A107.94,107.94,0,0,0,414.5,271.72Z" transform="translate(-5 -155)"/><path class="cls-1" d="M423.29,311.55,400,276.24c2.23-.85,5-2,8.13-3.57l.31.74c1.61-.53,3.67-1.15,6.08-1.69A107.94,107.94,0,0,1,423.29,311.55Z" transform="translate(-5 -155)"/><path class="cls-7" d="M427.26,268.94A62.58,62.58,0,0,0,414,270.53a108.63,108.63,0,0,0-18.39-28.37l14.12-2.67A122.87,122.87,0,0,1,427.26,268.94Z" transform="translate(-5 -155)"/><path class="cls-1" d="M409.72,239.49a124.34,124.34,0,0,0-27.18-25.12c.48-.56,1-1.14,1.54-1.7a68.13,68.13,0,0,1,11.7-9.86A140.64,140.64,0,0,1,428.29,236Z" transform="translate(-5 -155)"/><path class="cls-1" d="M414.5,271.72c-2.41.54-4.47,1.16-6.08,1.69l-.31-.74.55-.28,1.6-.82s0,0,0-.06c1.18-.34,2.44-.66,3.75-1C414.17,270.93,414.34,271.33,414.5,271.72Z" transform="translate(-5 -155)"/><path class="cls-1" d="M410.26,271.57l-1.6.82-.55.28c-.05-.15-.12-.29-.18-.44q1.1-.36,2.31-.72S410.26,271.55,410.26,271.57Z" transform="translate(-5 -155)"/><path class="cls-1" d="M403.14,261.67c-3.08-6.29-6.29-12-9.48-17.21a55.63,55.63,0,0,1,16.58,27q-1.22.36-2.31.72C406.5,268.83,404.9,265.28,403.14,261.67Z" transform="translate(-5 -155)"/><path class="cls-1" d="M395.6,242.16A108.63,108.63,0,0,1,414,270.53c-1.31.32-2.57.64-3.75,1a55.63,55.63,0,0,0-16.58-27c-.35-.59-.72-1.16-1.07-1.73Z" transform="translate(-5 -155)"/><path class="cls-1" d="M418.28,587.24c-4,3.21-33.18,26-96.25,66l-12.15,5.38a69.51,69.51,0,0,1,12.68-23.91c13.62-16.81,21.5-10.83,39-28.35,19.59-19.66,20.21-37.72,30.9-37.8C401.58,568.53,404.64,581.65,418.28,587.24Z" transform="translate(-5 -155)"/><path class="cls-7" d="M382.54,214.37a124.34,124.34,0,0,1,27.18,25.12l-14.12,2.67a109.24,109.24,0,0,0-20.47-17.78A67.79,67.79,0,0,1,382.54,214.37Z" transform="translate(-5 -155)"/><path class="cls-5" d="M360.19,540.23a66,66,0,0,1-16.46-19.91l93.89,33.36A66.8,66.8,0,0,0,424.71,551c-15.44-1.42-17.31,4.32-32.27,2.69A63.82,63.82,0,0,1,360.19,540.23Z" transform="translate(-5 -155)"/><path class="cls-1" d="M371,232.3a55.49,55.49,0,0,1,22.25,11.78c.15.13.29.25.42.38,3.19,5.18,6.4,10.92,9.48,17.21,1.76,3.61,3.36,7.16,4.79,10.56.06.15.13.29.18.44-3.14,1.55-5.9,2.72-8.13,3.57Z" transform="translate(-5 -155)"/><path class="cls-1" d="M394.07,278.26a88.17,88.17,0,0,0-34.57-38.84l4.95-8.43A54.13,54.13,0,0,1,371,232.3l29,43.94c-.53.21-1,.39-1.5.56C396.74,277.43,395.39,277.86,394.07,278.26Z" transform="translate(-5 -155)"/><path class="cls-1" d="M371,232.3a69.62,69.62,0,0,1,4.14-7.92,109.24,109.24,0,0,1,20.47,17.78l-3,.57c.35.57.72,1.14,1.07,1.73-.13-.13-.27-.25-.42-.38A55.49,55.49,0,0,0,371,232.3Z" transform="translate(-5 -155)"/><path class="cls-1" d="M411.76,415.75a140,140,0,0,1-52.93,32.82c7.29-6,19.43-13,39-24.42C402.49,421.4,407.13,418.57,411.76,415.75Z" transform="translate(-5 -155)"/><path class="cls-7" d="M367.16,294.76l9.83,1.36-12.52,12.36c0-.1,0-.17,0-.27a23.42,23.42,0,0,1,1.31-10.47A19.43,19.43,0,0,1,367.16,294.76Z" transform="translate(-5 -155)"/><path class="cls-1" d="M364.45,231l-4.95,8.43c-.68-.4-1.37-.81-2.07-1.2l1.78-3.3,4.63-3.66C364,231.16,364.24,231.08,364.45,231Z" transform="translate(-5 -155)"/><path class="cls-7" d="M351.29,357l2.27,12.76-5.68-3a9.89,9.89,0,0,0,.86-1C349.76,364.45,350.29,361.93,351.29,357Z" transform="translate(-5 -155)"/><path class="cls-5" d="M291.36,666.83l-26.23,22.25L241.52,693q-14.4,9.16-28.84,18.32a3.28,3.28,0,0,1-.34-.31l.94-.34-31.41-64.13,65.55-18.33,96.09-108,.22.08a66,66,0,0,0,16.46,19.91,63.82,63.82,0,0,0,32.25,13.49c15,1.63,16.83-4.11,32.27-2.69a66.8,66.8,0,0,1,12.91,2.65l5.36,1.9L430.54,568l-11.8,18.84-.46.38c-13.64-5.59-16.7-18.71-25.84-18.66-10.69.08-11.31,18.14-30.9,37.8-17.48,17.52-25.36,11.54-39,28.35a69.51,69.51,0,0,0-12.68,23.91Z" transform="translate(-5 -155)"/><path class="cls-5" d="M345.93,326.77l18.54-18.29c.47,5.55,2.44,7.33,6.52,18.06,3.71,9.76,3.59,12.3,2.62,14.39-1.09,2.31-3.59,4.93-6.55,5.24-2.55.28-3.29-1.39-6.54-1.31a9.92,9.92,0,0,0-6.54,2.62c-1.73,1.79-1.48,3.48-2.62,9.16,0,.11,0,.22-.07.33Z" transform="translate(-5 -155)"/><path class="cls-5" d="M331.9,286.4l27.6-47a88.17,88.17,0,0,1,34.57,38.84c-2.07.64-4.07,1.23-7.37,2.47-4.71,1.78-7.07,2.66-9.16,3.93a27.65,27.65,0,0,0-10.38,10.1l-33.39-4.65Z" transform="translate(-5 -155)"/><path class="cls-5" d="M359.5,239.42l-27.6,47-.2-.42s0,0,0,0l25.7-47.74C358.13,238.61,358.82,239,359.5,239.42Z" transform="translate(-5 -155)"/><path class="cls-5" d="M347.88,366.78c-3.34,3.32-9.33,4.76-13.54,3-3.23-1.39-3.67-3.94-6.54-3.93-2.45,0-3.86,1.87-6.54,1.31a6,6,0,0,1-2.62-1.31l1.31-6.54-13.09-2.62-.24-2.6,8.2-4.38Z" transform="translate(-5 -155)"/><path class="cls-7" d="M347.88,366.78l-33.06-17.12-8.2,4.38-1.07-11.8c-.88-2.18-1.75-4.35-2.62-6.54l29-49.3,1.87,3.71,33.39,4.65a19.43,19.43,0,0,0-1.4,3,23.42,23.42,0,0,0-1.31,10.47c0,.1,0,.17,0,.27l-18.54,18.29,5.36,30.2c-1,5-1.53,7.48-2.55,8.83A9.89,9.89,0,0,1,347.88,366.78Z" transform="translate(-5 -155)"/><path class="cls-7" d="M302.93,335.7A44.4,44.4,0,0,1,331.7,286l.2.42Z" transform="translate(-5 -155)"/><path class="cls-7" d="M308.17,305.6a44.94,44.94,0,0,0-5.24,30.1c.87,2.19,1.74,4.36,2.62,6.54l1.07,11.8-30.3,16.16,7.11-43.05L252,296.89l43.13-6.54,19.07-39.24L331.7,286A45,45,0,0,0,308.17,305.6Z" transform="translate(-5 -155)"/><path class="cls-5" d="M314.21,251.11l-19.07,39.24L252,296.89l31.42,30.26-7.11,43.05L306.62,354l.24,2.6L320,359.26l-1.31,6.54a6,6,0,0,0,2.62,1.31c2.68.56,4.09-1.29,6.54-1.31,2.87,0,3.31,2.54,6.54,3.93,4.21,1.81,10.2.37,13.54-3l5.68,3L351.29,357c0-.11,0-.22.07-.33,1.14-5.68.89-7.37,2.62-9.16a9.92,9.92,0,0,1,6.54-2.62c3.25-.08,4,1.59,6.54,1.31,3-.31,5.46-2.93,6.55-5.24,1-2.09,1.09-4.63-2.62-14.39-4.08-10.73-6.05-12.51-6.52-18.06L377,296.12l-9.83-1.36a27.65,27.65,0,0,1,10.38-10.1c2.09-1.27,4.45-2.15,9.16-3.93,3.3-1.24,5.3-1.83,7.37-2.47a89,89,0,0,1,8.05,37.15c0,48.8-39,88.35-87,88.35s-87-39.55-87-88.35,39-88.34,87-88.34a85.47,85.47,0,0,1,42.34,11.15L331.73,286s0,0,0,0Z" transform="translate(-5 -155)"/><path class="cls-1" d="M189.06,316.71c0,68.31,55.47,123.68,123.9,123.68A123.82,123.82,0,0,0,436,330.87l13.09,19.83a139.82,139.82,0,0,1-37.37,65.05c-4.63,2.82-9.27,5.65-13.94,8.4-19.56,11.45-31.7,18.44-39,24.42a140.06,140.06,0,1,1,36.95-245.76,68.13,68.13,0,0,0-11.7,9.86c-.54.56-1.06,1.14-1.54,1.7A123.46,123.46,0,0,0,313,193C244.53,193,189.06,248.41,189.06,316.71Z" transform="translate(-5 -155)"/><path class="cls-1" d="M315.09,227.07c-48.06,0-87,39.55-87,88.34s39,88.35,87,88.35,87-39.55,87-88.35a89,89,0,0,0-8.05-37.15c1.32-.4,2.67-.83,4.41-1.46.47-.17,1-.35,1.5-.56l23.31,35.31c0,1.06,0,2.14,0,3.21,0,60-48.5,108.63-108.33,108.63S206.69,374.75,206.69,314.76,255.19,206.13,315,206.13a107.53,107.53,0,0,1,60.12,18.25A69.62,69.62,0,0,0,371,232.3a54.13,54.13,0,0,0-6.54-1.31c-.21.09-.41.17-.61.27l-4.63,3.66-1.78,3.3A85.47,85.47,0,0,0,315.09,227.07Z" transform="translate(-5 -155)"/><path class="cls-7" d="M189.06,316.71C189.06,248.41,244.53,193,313,193a123.46,123.46,0,0,1,69.58,21.33,67.79,67.79,0,0,0-7.41,10A107.53,107.53,0,0,0,315,206.13c-59.82,0-108.32,48.63-108.32,108.63S255.19,423.39,315,423.39s108.33-48.64,108.33-108.63c0-1.07,0-2.15,0-3.21L436,330.87A123.82,123.82,0,0,1,313,440.39C244.53,440.39,189.06,385,189.06,316.71Z" transform="translate(-5 -155)"/><path class="cls-5" d="M181.87,646.55l31.41,64.13-.94.34a92.85,92.85,0,0,1-30.47-64.47Z" transform="translate(-5 -155)"/><path class="cls-1" d="M153,671.18l28.85-24.63A92.85,92.85,0,0,0,212.34,711a220,220,0,0,0-29.82,13.4c-.86.47-1.71.93-2.59,1.38l0-.07A63.16,63.16,0,0,1,153,671.19Z" transform="translate(-5 -155)"/><path class="cls-1" d="M153,671.19a63.16,63.16,0,0,0,26.88,54.54l0,.07c-26.54,13.91-55.82,21.84-75.94,35.27,0,0-10.88,6.24-36.65,31.41-3.94,3.84-10.05,10-9.16,17,.66,5.24,4.66,6.36,7.85,13.08,3.35,7.1,4.93,18.54,0,23.56-7.39,7.53-26.89-1.82-34-5.23-11.5-5.51-22.95-11-26.17-22.25-3.55-12.35,4.89-24.4,14.4-38a116.88,116.88,0,0,1,23.55-24.87v-15.7l15.71-17,29.45.66L119,700.21Z" transform="translate(-5 -155)"/><path class="cls-9" d="M782.49,249.38a7.44,7.44,0,0,1,3.49,0,7,7,0,0,1,2.07.93,7.26,7.26,0,0,1,2.84,4" transform="translate(-5 -155)"/><path class="cls-9" d="M785,252.16a2.52,2.52,0,0,0-1.09.25v4.12l3-1.41a2.31,2.31,0,0,0-.94-2.71A1.93,1.93,0,0,0,785,252.16Z" transform="translate(-5 -155)"/><path class="cls-9" d="M786.54,253.9a2.35,2.35,0,0,0-2,.5,2.18,2.18,0,0,0-.47,2" transform="translate(-5 -155)"/><path class="cls-10" d="M747.91,212.74a11.07,11.07,0,0,1,2,7.1c-.21,2-1,2.59-3.38,8.09-1.28,2.91-1,2.68-2.25,5.39-1.92,4.34-2.89,6.51-4.16,8.24a26.88,26.88,0,0,1-7.5,6.74l.47-.42a1.61,1.61,0,0,1-.86.13c-1.22-.2-1.69-2-2.62-3.93s-1.52-2.11-2.62-3.92c-.1-.19-.21-.36-.31-.53a22.67,22.67,0,0,1-2.41-7.35c-2.16-11.29,2.19-18.86,2.79-19.53a14.29,14.29,0,0,1,1.75-1.59c.41-.28.89-.62,1.47-1a17.36,17.36,0,0,1,1.88-.92,15.54,15.54,0,0,1,6.35-1.15l.38,0c.22,0,.47,0,.75.08a11.84,11.84,0,0,1,2.42.57,11.67,11.67,0,0,1,1.7.69l.73.39.71.43c.19.15.39.28.57.42l.49.37.35.31.36.33a12.69,12.69,0,0,1,.91.94S747.91,212.72,747.91,212.74Z" transform="translate(-5 -155)"/><path class="cls-10" d="M735.09,228.51a9.83,9.83,0,0,0,3-.84l.51-.25a10.49,10.49,0,0,0,3.19-2.7,10.89,10.89,0,0,0,2.41-4.59,6.37,6.37,0,0,0,.17-3.34,6.17,6.17,0,0,0-3.64-3.82,6.4,6.4,0,0,0-4.12,0,9.36,9.36,0,0,0-4.31,3.33,13.28,13.28,0,0,0-2.24,3.32,16.57,16.57,0,0,0-1.3,6,21,21,0,0,0,0,4.12c.17,1.73.33,3.23,1.1,3.49,1.09.38,2.19-2.16,3.34-1.88a.86.86,0,0,1,.48.34c.89,1.26.4,5.39,3.13,7.62.75.6,1.81,1.12,2.23.81.61-.49-.92-2.23-.46-4.45s2.29-2.58,2.08-4.12a2.5,2.5,0,0,0-2-2.08.91.91,0,0,0-.33,0,2.87,2.87,0,0,0-2.54,2.21" transform="translate(-5 -155)"/><path class="cls-10" d="M779.83,275.89a4.36,4.36,0,0,0-3.18.62,4.79,4.79,0,0,0-1.77,3.64c-.08.74-.3,2.65.62,3.18s1.62-.61,4-.77h.24a3.92,3.92,0,0,1,2.3.34c1.81,1,2.43,4.23,1.41,5.09-.63.52-1.85.17-2.55-.33a3.2,3.2,0,0,1-1.09-3.51" transform="translate(-5 -155)"/><path class="cls-11" d="M153,671.19a63.16,63.16,0,0,0,26.88,54.54" transform="translate(-5 -155)"/><path class="cls-11" d="M526.09,586.34a68.11,68.11,0,0,0-3.79,6.49c-.77,1.53-1.55,3.22-2.29,5a64.61,64.61,0,0,0-2.63,40.73c.07.25.13.5.2.74" transform="translate(-5 -155)"/><path class="cls-11" d="M919.76,351a25.14,25.14,0,0,1,6.23,7.21,18.5,18.5,0,0,1,2.13,6.9c0,.27,0,.53,0,.53a2.42,2.42,0,0,1,0,.25c0,.4-4.64,9.07-9.58,7.33-2.86-1-3.81-4.81-3.94-5.39" transform="translate(-5 -155)"/><path class="cls-11" d="M932.61,361.67q6-4.2,12-8.43c2.14-3.06,4.26-6.14,6.38-9.2" transform="translate(-5 -155)"/><path class="cls-11" d="M938.35,375.61a40.6,40.6,0,0,0,30.5-21.35" transform="translate(-5 -155)"/><path class="cls-11" d="M944.86,392.78c1.44.18,11.12,1.23,18.91-5.88a23.86,23.86,0,0,0,7.48-15" transform="translate(-5 -155)"/><path class="cls-11" d="M946.43,404.23a29.86,29.86,0,0,0,12.3-1.77A30.32,30.32,0,0,0,973,391.27" transform="translate(-5 -155)"/><path class="cls-11" d="M928,398.35a27.36,27.36,0,0,0,21,18" transform="translate(-5 -155)"/><path class="cls-11" d="M916.29,388.69l6.74,6.06a8.82,8.82,0,0,0,3.15,1.16,7.85,7.85,0,0,0,1.74.07c5.89-.32,10.45-6.75,10.72-7.16" transform="translate(-5 -155)"/></svg>