<svg id="Camada_1" data-name="Camada 1" xmlns="http://www.w3.org/2000/svg" viewBox="0 0 814.37 1037.72"><defs><style>.cls-1{fill:#c6c9ca;}.cls-2{fill:#111d2b;}.cls-3{fill:#a2a8a5;}.cls-4{fill:#d19978;}.cls-5{fill:#efefef;}.cls-6{fill:#12161b;}.cls-7{fill:#757d81;}.cls-8{fill:#dee0e0;}.cls-9{fill:#d1d3d3;}.cls-10{fill:#9d4c2b;}.cls-11{fill:#d1d1d1;}.cls-12{fill:#b7836c;}.cls-13{fill:#494d41;}.cls-14{fill:#d87576;}.cls-15{fill:#401707;}.cls-16{fill:#aa0e0e;}.cls-17{fill:#9b592c;}.cls-18{fill:#b3b6b7;}.cls-19{fill:none;stroke:#b7b7b7;stroke-miterlimit:10;}.cls-20{fill:#0f1318;}</style></defs><title>viuva</title><polygon class="cls-1" points="667.3 781.69 664.04 787.38 661.85 791.22 650.96 791.22 645.51 788.5 644.15 759.9 643.04 754.36 641.42 746.28 637.75 735.25 637.34 734.03 640.06 729.94 646.87 724.49 667.3 719.05 678.19 713.6 678.19 721.77 697.26 763.99 698.62 772.16 685 800.76 685.48 801.83 683.8 798.46 678.72 788.23 676.83 784.41 672.75 774.88 670.02 776.24 667.3 781.69"/><polygon class="cls-2" points="683.8 798.46 685.48 801.83 697.26 827.99 694.53 834.8 695.9 837.53 698.62 837.53 706.79 849.78 705.43 853.87 706.79 856.59 712.24 859.32 729.94 890.64 727.22 897.45 731.3 904.26 739.47 919.24 738.11 923.32 739.47 927.41 746.28 928.77 763.99 961.45 761.26 964.18 759.9 969.62 766.71 973.71 773.52 983.24 772.16 988.69 773.52 991.41 780.33 990.05 814.38 1037.71 780.33 1036.35 759.9 1003.67 761.26 995.5 761.26 992.77 757.18 992.77 751.73 981.88 753.09 976.43 750.37 972.35 743.56 972.35 728.58 941.02 725.86 934.22 729.94 930.13 729.94 927.41 724.49 927.41 719.05 912.43 716.32 902.89 710.88 902.89 695.9 874.3 695.9 864.76 697.26 859.32 693.17 859.32 686.36 845.7 686.36 840.25 678.19 840.25 664.57 810.29 683.8 798.46"/><polygon class="cls-3" points="678.72 788.23 683.8 798.46 664.57 810.29 661.85 810.29 660.49 806.2 659.3 805.61 663.21 796.67 663.61 792.39 678.72 788.23"/><polygon class="cls-2" points="664.04 787.38 667.3 781.69 670.02 776.24 672.75 774.88 676.83 784.41 678.72 788.23 663.61 792.39 664.06 787.38 664.04 787.38"/><polygon class="cls-4" points="663.61 792.39 663.21 796.67 659.3 805.61 657.76 804.84 655.04 806.2 649.59 807.57 645.51 802.12 645.51 788.5 650.96 791.22 661.85 791.22 664.04 787.38 664.06 787.38 663.61 792.39"/><polygon class="cls-1" points="629.96 718.17 652.32 712.24 652.32 708.15 661.85 704.07 664.57 705.43 678.74 696.71 676.83 698.62 678.19 712.24 678.19 713.6 667.3 719.05 646.87 724.49 640.06 729.94 637.34 734.03 637.75 735.25 637.34 735.39 629.96 718.17"/><polygon class="cls-4" points="633.57 749.91 643.04 754.36 644.15 759.9 645.51 788.5 638.7 784.41 637.34 773.52 631.89 769.43 631.89 759.9 630.53 755.82 634.61 751.73 633.55 749.92 633.57 749.91"/><polygon class="cls-2" points="629.96 718.17 637.34 735.39 637.75 735.25 641.42 746.28 643.04 754.36 633.57 749.91 633.55 749.92 625.08 735.39 625.08 733.85 633.25 727.22 629.87 718.2 629.96 718.17"/><polygon class="cls-3" points="623.72 709.51 629.86 718.19 629.87 718.2 633.25 727.22 625.08 733.85 625.08 731.3 622.36 728.58 615.55 720.41 619.63 713.6 621 709.51 623.72 709.51"/><polygon class="cls-2" points="623.72 675.47 645.51 663.21 645.51 655.04 650.96 650.96 649.59 646.87 653.68 644.15 653.68 638.7 655.04 634.61 655.04 630.53 659.13 630.53 680.92 694.53 678.74 696.71 664.57 705.43 661.85 704.07 652.32 708.15 652.32 712.24 629.96 718.17 629.17 716.32 629.86 718.19 623.72 709.51 610.1 680.92 611.46 672.75 610.64 670.51 616.91 678.19 623.72 675.47"/><path class="cls-5" d="M673.93,316.42l8.17,50.38L678,368.17l4,32.91-10-6,.62-1.06-4.09-17.7-4.94,4.11-10-34.07-23.2-25.8h0l-6.74-62.72,1.45.57,12.17,4.88,4.09-2.73s40.85,20.43,35.4,49v4.08Z" transform="translate(-85.62 -3.2)"/><path class="cls-2" d="M669.84,789l1.37,8.17-4.91,15.94-6,14-8.17,2.73L644,821.66l-4.09-5.45v-15.8l4.09-7.35,2.72-8.17v-1l9.54-5.76,5.44,1.36,2.73,4.09Z" transform="translate(-85.62 -3.2)"/><path class="cls-6" d="M667.12,818.93v8.17l-2.72,12.26L659,848.89l-4.09,6.81-24.51,69.46-13.62-1.37-4.08-5.44L611.28,902l5.45-10.89V884.3L614,885.66l-2.73,8.17-2.72,9.54-4.08,10.89-4.09,8.17-2.72-1.36-.77,1.81,3.49-22.24L577.24,902v1.37l-5.45,1.36-15-1.36v-2.73l-42.22-8.17-21.78-8.09h-.09l-.38-25.27,0-2.06h0l26.35,12.27,36.77,6.81h6.81v-1.36h12.26l6.8,1.36,6.81,2.72,20.43-4.08,28.6-107.59V742.67l-5.45-6.81-12.25-8.17L599,719.52,571.79,710l-24.51-12.26-15-8.17-5.45-5.45H502.34L501,686.84l-16.35-2.73-1.36,1.36-33-3.81.34-3,30,2.73c-4.09-19.07,5.45-38.13,5.45-38.13l.49-3.6,6.32.87,12.25,1.36,31.32,2.73v2.72l66.73-2.72,4.09-1.36,4.08-4.09L609.92,631l2.44-9.82,1.65,1.65,6.81,1.36,8.17,28.6,1.36,12.26,4.09,5.44L644,695l1.36,28.59,4.09,4.09,5.44,20.43,1.37,13.62v16.34l-9.54,5.76V768.55l-4.08-16.35v16.35l-1.36,15-4.09,19.06v2.72l2.72-4.9v15.8l4.09,5.45,8.17,8.17,8.17-2.73,6-14-.54,1.77Zm-30-102.13-6.81-38.14-9.53,4.09-4.09-4.09-13.62,2.73-21.79,2.72L601.75,695l20.43,8.17Z" transform="translate(-85.62 -3.2)"/><polygon class="cls-1" points="578.78 584.23 532.48 441.23 531.28 442.94 540.61 417.02 563.8 411.27 581.5 400.38 586.34 391.91 596.35 397.89 596.48 399.02 595.12 399.02 655.04 630.53 655.04 634.61 653.68 638.7 653.68 644.15 649.59 646.87 650.96 650.96 645.51 655.04 645.51 663.21 623.72 675.47 616.91 678.19 610.64 670.51 578.78 584.23"/><polygon class="cls-7" points="563.8 411.27 540.61 417.02 546.09 401.74 548.03 394.51 566.52 386.76 577.92 377.25 582.86 373.14 586.95 390.85 586.34 391.91 581.5 400.38 563.8 411.27"/><polygon class="cls-1" points="544.73 675.47 551.54 713.6 536.56 699.98 516.13 691.81 495.71 680.92 517.5 678.19 531.11 675.47 535.2 679.55 544.73 675.47"/><polygon class="cls-1" points="548.03 394.51 550 387.07 551.54 381.31 544.66 317.39 544.68 317.39 567.88 343.18 577.92 377.25 566.52 386.76 548.03 394.51"/><polygon class="cls-2" points="544.73 348.63 539.28 341.82 537.92 337.73 536.56 311.86 536.56 303.69 536.56 290.07 532.48 271 525.67 251.94 527.96 238.25 528.39 238.32 537.92 247.85 539.37 255.23 537.92 254.66 544.66 317.39 551.54 381.31 550 387.07 548.82 386.76 546.09 366.33 544.73 348.63"/><path class="cls-2" d="M627.63,372.25l-1.36,10.9-2.73,9.53v8.17h-4.08l-3.22-21.42a2,2,0,0,0,.49,1l1.36-6.81,1.37-12.25,2.72-4.09,5.45,2.73,1.36,5.44Z" transform="translate(-85.62 -3.2)"/><polygon class="cls-2" points="537.92 399.02 544.73 371.78 548.82 386.76 550 387.07 548.03 394.51 546.09 401.74 540.61 417.02 531.28 442.94 531.28 442.95 525.18 451.67 531.11 423.53 533.84 397.65 537.92 397.65 537.92 399.02"/><polygon class="cls-8" points="480.73 299.6 480.73 310.5 475.28 321.39 475.28 320.03 469.83 310.5 467.11 292.79 471.19 268.28 478 281.9 480.73 299.6"/><polygon class="cls-9" points="471.19 213.81 479.37 231.51 471.19 238.32 471.19 213.81"/><polygon class="cls-10" points="475.24 124.88 476.19 134.45 472.56 134.82 471.19 125.29 475.24 124.88"/><path class="cls-10" d="M592.22,421.28l5.45,10.89-5.45-5.44-5.45-6.81-1.36,2.72-2.72,2.72-4.09,4.09-1.36-2.72V404.94L575.88,394s-1.36-6.81-1.36-8.17-2.73-9.53-2.73-9.53-2.72,4.08-2.72,5.45-6.81,16.34-6.81,16.34l-4.09,15L556.81,409s1.36-6.81,1.36-8.17v-8.17l4.09-13.62,1.36-10.89-1.36-4.09-5.45,5.45L550,380.42l-5.44,19.07-4.09,30-2.72-13.62V409l2.72-16.34,6.81-25.88s4.08-17.7,4.08-20.42,1.37-10.9,1.37-10.9l-1.37-2.72-6.8-5.45-5.45-9.53-6.81-10.9v-15s1.13-7.51,2.19-14.85c1-6.62,1.89-13.1,1.89-13.74,0-1.37,1.37-8.18,1.37-8.18l4.08-15,1.36-13.61-6.81-15-2.72-4.09.49-6.39V201l.67-8.79.19-2.46,4.09-8.17,3.27-10.87v-.07l.8-2.68,6.81-2.73,5.45-20.42,2.72-6.81,3.64-.37.45,4.45,32.68,166.15V360l2.73,5.44,2.72-9.53v-2.72l2.72,12.25s1.37-9.53,2.73-9.53,0-12.26,0-12.26l4.08-6.81-5.44-12.25L599,305.52l-10.9-169.14,10,17.9,1,1.86,1.27,2.3,9.53,16.35,5.45,6.81,2.72,17.7-2.72,19.07L614,219.73v19.06l-.44,2.66-2.29,13.68,6.81,19.07,4.09,19.07v21.79l1.36,25.87L624.9,345l5.45,6.8,1.36,17.71L634.44,390l-4.09-15-6.81,27.23v-9.53l2.73-9.53,1.36-10.9,1.36-6.81L627.63,360l-5.45-2.73-2.72,4.09-1.37,12.25-1.36,6.81a2,2,0,0,1-.49-1v-.07a10.47,10.47,0,0,1,.5-4.38L614,366.8l-1.36-5.44a4.2,4.2,0,0,1-1.37,2.72l-1.36,1.36L607.2,375l-1.36,10.89,5.44,2.72V394l-1.36,4.09,1.36,9.53-4.08-2.72s-2.72-6.81-4.09-6.81,1.37,1.36,0,1.36,1.37,5.45,1.37,5.45v5.44a30.77,30.77,0,0,0,1.36,5.45l-1.36,9.53h-1.37v-6.81a13.7,13.7,0,0,0-1.36-4.08V406.3L596.3,394a13.79,13.79,0,0,0-1.36,4.09c0,1.36-4.08,9.53-4.08,9.53ZM566.34,313.69V302.8l-2.72-17.7-6.81-13.62L552.73,296l2.72,17.7,5.45,9.54v1.36Zm-1.36-79L556.81,217v24.52Z" transform="translate(-85.62 -3.2)"/><path class="cls-11" d="M560.9,1039.55v1.36H491.44l1.37-27.24s8.17-5.44,6.8-5.44,17.71-6.81,17.71-6.81l25.87,6.81Z" transform="translate(-85.62 -3.2)"/><polygon class="cls-12" points="456.77 167.46 461.66 141.63 463.98 122.81 464.38 125.29 467.11 122.56 471.19 125.29 472.56 134.82 469.83 141.63 464.38 162.06 457.57 164.78 456.77 167.46"/><polygon class="cls-10" points="451.42 73.33 472.56 98.05 475.24 124.88 471.19 125.29 467.11 122.56 464.38 125.29 463.98 122.81 463.02 117.12 463.02 99.41 457.57 84.43 451.41 73.33 451.42 73.33"/><path class="cls-9" d="M513.23,293.27l9.54-47.67L528.21,232l5.94-30.9-.49,6.39,2.72,4.09,6.81,15-1.36,13.61-4.08,15s-1.37,6.81-1.37,8.18c0,.64-.92,7.12-1.89,13.74l-.83-.13a168.4,168.4,0,0,0-34,74.05V331.4l5.45-21.79Z" transform="translate(-85.62 -3.2)"/><path class="cls-13" d="M518.68,125.76l7.1,1.29-.09.41a7,7,0,1,1-13.82,1Z" transform="translate(-85.62 -3.2)"/><path class="cls-5" d="M502.34,135.29l9.53-6.81a7,7,0,1,0,13.82-1l.09-.41,7.88,1.43L524.13,138H511.87Z" transform="translate(-85.62 -3.2)"/><polygon class="cls-10" points="419.44 121.2 411.27 119.84 411.27 115.76 439.87 108.95 448.04 110.31 454.85 117.12 449.4 115.76 437.15 114.39 426.25 117.12 419.44 121.2"/><path class="cls-14" d="M505.06,200.66l-13.62,5.45a39.35,39.35,0,0,1-12.25-1.36,40.09,40.09,0,0,1-9.54-4.09c-1.81-2.27-3.62-4.55-5.44-6.81l6.81-1.36,8.17-5.45h4.08l4.09,2.73,4.08-2.73,5.45,1.37,8.17,4.08,6.81,1.36Z" transform="translate(-85.62 -3.2)"/><path class="cls-15" d="M498.24,171.74c.11.73-.7,1.48-1.8,1.66s-2.12-.27-2.25-1,.7-1.5,1.8-1.68S498.12,171,498.24,171.74Z" transform="translate(-85.62 -3.2)"/><polygon class="cls-12" points="379.41 346.06 378.59 341.82 369.06 288.71 362.36 211.68 363.61 209.72 362.74 200.98 392.21 226.06 411.27 226.06 423.53 219.25 449.21 189.04 448.55 197.82 448.53 197.89 442.6 228.79 437.15 242.41 427.62 290.07 419.44 306.41 414 328.2 414 347.77 414 349.99 405.83 374.5 401.74 381.31 388.12 381.31 385.4 377.23 379.41 346.06"/><path class="cls-8" d="M492.81,884.38l21.78,8.09,42.22,8.17v2.73l15,1.36,5.45-1.36V902l23.15-1.36-3.49,22.24v0l-6,14.49-23.15,81.71v21.79H560.9v-1.36l-17.71-31.32-25.87-6.81s-19.07,6.81-17.71,6.81-6.8,5.44-6.8,5.44l-1.37,27.24q.71-75.59,1.37-151.16l-.05-2.77,0-2.6Z" transform="translate(-85.62 -3.2)"/><path class="cls-8" d="M492.76,887l.05,2.77q-.68,75.59-1.37,151.16h-17.7l-5.45-21.79-21.79-10.89L420.63,1011,408.37,1030l-4.85,10.89H386.58l-4.08-38.13L364,930.14h0l4.86-22.69-4.09-12.25L385.22,887l20.43-6.8h2.72v1.36l20.43-4.09,1.36-1.36,5.45-1.36H452l17.7,1.36L486,880.22Z" transform="translate(-85.62 -3.2)"/><path class="cls-16" d="M450.59,678.66s10.89-13.61,5.45-38.13l30,2.73s-9.54,19.06-5.45,38.13Z" transform="translate(-85.62 -3.2)"/><polygon class="cls-8" points="251.67 804.6 250.58 787.14 247.85 763.99 251.94 749.01 262.83 738.11 285.99 725.86 314.58 710.88 337.73 695.9 362.25 678.19 364.63 678.46 397.65 682.28 399.02 680.92 415.36 683.64 416.72 680.92 441.23 680.92 446.68 686.36 461.66 694.53 486.17 706.79 513.41 716.32 533.84 724.49 546.09 732.66 551.54 739.47 551.54 763.99 522.94 871.57 502.52 875.66 495.71 872.93 488.9 871.57 476.64 871.57 476.64 872.93 469.83 872.93 433.06 866.13 406.71 853.85 406.7 853.85 406.72 855.91 388.12 847.06 366.33 845.7 345.9 845.7 337.73 845.7 337.73 844.34 318.67 847.06 318.67 851.14 303.69 855.23 271 867.49 251.94 804.58 251.67 804.6"/><path class="cls-15" d="M481.83,172.68c-.23.7-1.29,1-2.37.68s-1.76-1.2-1.54-1.91,1.29-1,2.37-.69S482.05,172,481.83,172.68Z" transform="translate(-85.62 -3.2)"/><polygon class="cls-11" points="382.68 1015.93 388.12 1037.71 317.91 1037.71 322.75 1026.82 335.01 1007.75 360.88 1005.03 382.68 1015.93"/><path class="cls-9" d="M464.21,345l.81,4.23a152.45,152.45,0,0,0-26.69-46.45c-3.06-3.65-6.18-7-9.27-10l1.1-2.22-2.72-2.72,8.17-6.81,4.08-16.34,1.37-20.43L437,232l11-17.1,6.7,77Z" transform="translate(-85.62 -3.2)"/><path class="cls-13" d="M456.79,135a7.35,7.35,0,0,1-4.84-7.85l-.11-.3,2.83-1.06,10.9,1.36a7.19,7.19,0,0,1-6.81,8.17A6.16,6.16,0,0,1,456.79,135Z" transform="translate(-85.62 -3.2)"/><path class="cls-5" d="M458.76,135.29a7.19,7.19,0,0,0,6.81-8.17l9.53,8.17-15,2.73-3.89-1.12.56-1.93A6.16,6.16,0,0,0,458.76,135.29Z" transform="translate(-85.62 -3.2)"/><path class="cls-4" d="M502.34,135.29l9.53,2.73h12.26l9.53-9.54-7.88-1.43-7.1-1.29-6.81,2.72Zm2.72,57.2-8.17-4.08L491.44,187l-4.08,2.73L483.27,187h-4.08L471,192.49l-6.81,1.36c1.82,2.26,3.63,4.54,5.44,6.81a40.09,40.09,0,0,0,9.54,4.09,39.35,39.35,0,0,0,12.25,1.36l13.62-5.45,6.81-6.81Zm20.43-80.35L496.89,119V123l8.17,1.36,6.81-4.09,10.9-2.72L535,119l5.45,1.36-6.81-6.81Zm-47.57,59.31c-.22.71.46,1.57,1.54,1.91s2.14,0,2.37-.68-.46-1.58-1.54-1.92S478.15,170.73,477.92,171.45Zm-34.14-41.6,6.81,5.44,5.64,1.61,3.89,1.12,15-2.73-9.53-8.17-10.9-1.36-2.83,1.06ZM438.33,119H457.4l4.08,1.36,13.62,6.81,4.09-5.44L453.12,113a6.13,6.13,0,0,0-4.85.45Zm-3.84,51.78-5.43-38.95h0l1.12-15.55,5.45-17.71,13.62-19.06,15-15L475.1,59l9.53,1.36,4.09,2.73L501,64.48l12.25-1.36s8.17,4.08,9.54,4.08,13.61,8.17,13.61,8.17l.64,1.16,6.17,11.1,5.45,15v17.7l1,5.7-2.31,18.82-4.89,25.83v.07l-3.27,10.87L535,189.77l-.19,2.46-25.68,30.22-12.26,6.81H477.83l-29.47-25.08-.49-4.88-5.45-8.17Zm61.95,2.67c1.1-.18,1.91-.93,1.8-1.66s-1.13-1.2-2.25-1-1.9.93-1.8,1.68S495.33,173.59,496.44,173.4Z" transform="translate(-85.62 -3.2)"/><path class="cls-5" d="M452,127.12a7.35,7.35,0,0,0,4.84,7.85l-.56,1.93-5.64-1.61-6.81-5.44,8.06-3Z" transform="translate(-85.62 -3.2)"/><path class="cls-10" d="M457.4,119H438.33l9.94-5.53a6.13,6.13,0,0,1,4.85-.45l26.07,8.71-4.09,5.44-13.62-6.81Z" transform="translate(-85.62 -3.2)"/><polygon class="cls-12" points="343.44 128.58 348.87 167.53 347.27 163.42 343.18 160.7 333.65 132.1 339.1 123.93 343.18 132.1 343.43 128.58 343.44 128.58"/><path class="cls-1" d="M396.12,688.2l-32.69,17.7-21.79,13.62-10.89,12.26,15.82-68.23q5.7-10.15,11.41-20.29l4.09,5.44,42.22,16.35v4.08l10.89,2.73Z" transform="translate(-85.62 -3.2)"/><polygon class="cls-8" points="283.26 389.48 291.43 371.78 298.24 362.25 298.24 354.08 300.96 354.08 303.69 358.16 302.33 367.69 299.6 378.59 296.88 385.4 290.07 388.12 285.06 391.88 283.26 389.48"/><path class="cls-8" d="M592.22,426.73l5.45,5.44-5.45-10.89-1.36-13.62s4.08-8.17,4.08-9.53A13.79,13.79,0,0,1,596.3,394l5.45,12.26v8.17a13.7,13.7,0,0,1,1.36,4.08v6.81h1.37l1.36-9.53a30.77,30.77,0,0,1-1.36-5.45v-5.44s-2.73-5.45-1.37-5.45-1.36-1.36,0-1.36,4.09,6.81,4.09,6.81l4.08,2.72-1.36-9.53,1.36-4.09v-5.45l-5.44-2.72L607.2,375l2.72-9.54,1.36-1.36a4.2,4.2,0,0,0,1.37-2.72L614,366.8l2.72,8.18a10.47,10.47,0,0,0-.5,4.38v.07l3.22,21.42-2.73,25.88-5.94,28.13-2.23,3.19-2.72,5.44-5.45,20.43v6.81l-6.81,69.45,4.09,23.16,13.61,36.77,1.08,1.07L609.92,631l1.36,8.17-4.08,4.09-4.09,1.36-66.73,2.72v-2.72l-31.32-2.73-12.25-1.36-6.32-.87-33.18-4.57v1.36l-15-2.73H437l-24.51-5.44-2.73,1.36-32.68-10.9-9.53-9.53,2.72-8.17,2.62-12.24.1,0,.55-3,17.16-96.36-1.36-17.7-13.83-23,0,0-12.07-50.49,1.36,1.36h9.54l6.81,1.36,4.08-4.08,1.36,4.08-1.36,5.45-4.08,6.81-5.45,4.08,12.25-5.44s4.09-8.18,4.09-9.54,1.36,0,2.72,1.36,5.45,9.54,5.45,9.54l1.36,4.08,4.09,5.45,4.08,1.36L407,419.92l8.17,2.72-9.53-8.17-5.45-9.53,1.36-12.26L407,381.79l5.45-12.26V353.19l4.08-19.07,5.45-15,2.72-17.7,4.35-8.68c3.09,3.05,6.21,6.39,9.27,10A152.45,152.45,0,0,1,465,349.25l6,31.17,2.72,4.09h13.62l4.08-6.81,8.17-24.51V351a168.4,168.4,0,0,1,34-74.05l.83.13c-1.06,7.34-2.19,14.85-2.19,14.85v15l6.81,10.9,5.45,9.53,6.8,5.45,1.37,2.72s-1.37,8.17-1.37,10.9-4.08,20.42-4.08,20.42l-6.81,25.88L537.75,409v6.81l2.72,13.62,4.09-30L550,380.42l6.81-10.89,5.45-5.45,1.36,4.09-1.36,10.89-4.09,13.62v8.17c0,1.36-1.36,8.17-1.36,8.17l1.36,4.09,4.09-15s6.81-15,6.81-16.34,2.72-5.45,2.72-5.45,2.73,8.17,2.73,9.53,1.36,8.17,1.36,8.17l1.36,10.9v21.79l1.36,2.72,4.09-4.09,2.72-2.72,1.36-2.72Z" transform="translate(-85.62 -3.2)"/><polygon class="cls-8" points="284.62 392.21 277.81 394.93 277.81 382.68 285.99 369.06 288.71 370.42 285.99 378.59 283.26 389.48 285.06 391.88 284.62 392.21"/><polygon class="cls-2" points="268.28 399.02 277.81 382.68 277.81 394.93 289.88 445.43 289.87 445.44 287.35 441.23 286.83 442.62 274.16 418.41 274.15 418.41 268.28 407.19 268.28 399.02"/><path class="cls-17" d="M588.13,136.38,599,305.52l5.45,19.07,5.44,12.25-4.08,6.81s1.36,12.26,0,12.26-2.73,9.53-2.73,9.53l-2.72-12.25v2.72l-2.72,9.53L594.94,360V308.25L562.26,142.1l-.45-4.45-.95-9.57-2.69-26.83L537,76.53h0l-.64-1.16s-12.25-8.17-13.61-8.17-9.54-4.08-9.54-4.08L501,64.48l-12.26-1.36-4.09-2.73L475.1,59l-10.89,5.45-15,15L435.61,98.52l-5.45,17.71L429,131.78l-.24,3.51-4.09-8.17-5.44,8.17,9.53,28.6,4.09,2.73,1.6,4.11,7.93,20.4,5.45,8.17.49,4.88.87,8.74-1.26,2L437,232l4.09,12.26-1.37,20.43L435.61,281l-8.17,6.81,2.72,2.72-1.1,2.22-4.35,8.68L422,319.14l-5.45,15-4.08,19.07v16.34L407,381.79l-5.45,10.89-1.36,12.26,5.45,9.53,9.53,8.17L407,419.92l2.72,4.08-4.08-1.36-4.09-5.45-1.36-4.08s-4.08-8.17-5.45-9.54-2.72-2.72-2.72-1.36-4.09,9.54-4.09,9.54l-12.25,5.44,5.45-4.08,4.08-6.81,1.36-5.45-1.36-4.08-4.08,4.08-6.81-1.36h-9.54l-1.36-1.36,6.81-2.73.44-.32,5-3.76,6.81-2.73,2.72-6.8,2.72-10.9,1.37-9.53-2.73-4.09h-2.72v8.17L377.05,375l-8.17,17.7,2.72-10.89,2.73-8.18-2.73-1.36-8.17,13.62-9.53,16.34-6.81,1.36-.3-1.36-2.42-10.89,3.63-5.45,1.81-2.72,2.73-12.26-3.91-27.37,1.69-8,1.15-4.27,1.07-3.9,2.72-19.06L358,296l5.45-23.15-1.36-1.36,1.36-12.26V248.33l-1.36-10.9-1.36-8.17,1.36-5.45,2.72-9.53,4.09-8.17h-1.36l-2.73,2.72-5.44,5.45s-5.45,10.89-5.45,12.26v-1.37l2.72-12.25s2.73-2.73,4.09-2.73,2.72-4.08,2.72-5.44,2.73-5.45,2.73-5.45a54,54,0,0,1,4.08-5.45c1.36-1.36,1.36-4.08,1.36-4.08a13.7,13.7,0,0,1-4.08,1.36,13.79,13.79,0,0,0-4.09,1.36L358,195.21l1.11-1.1,3-3,8.17-5.45s5.45-6.81,4.09-5.45,6.81-13.61,6.81-13.61l5.44-34.05,13.62-34,15-42.21L428.8,30.43,450.59,8.64l15-5.44,19.06,2.72L505.06,3.2l25.88,8.17L550,27.71l8.17,15C574.52,55,570.43,67.2,570.43,67.2l1.36,1.36L575.88,74l1.36,13.62L580,95.8l6.81,20.43,13.62,15s4.09,5.45,4.09,6.81a58.78,58.78,0,0,1-1.37,6.81l-1.36-8.17v13.61L600.39,153v-9.54L597.67,138l-5.45-5.45L586.77,123v10.89l1.36,2.44Z" transform="translate(-85.62 -3.2)"/><polygon class="cls-2" points="263.01 340.32 266.92 367.69 264.19 379.95 262.38 382.68 260.11 354.08 263.01 340.32"/><polygon class="cls-1" points="239.68 389.48 229.21 373.78 256.02 324.12 265.86 328.01 264.7 332.29 262.83 339.1 263.01 340.32 260.11 354.08 262.38 382.68 258.75 388.12 261.17 399.02 239.68 389.48"/><path class="cls-6" d="M346.57,663.55l-15.82,68.23,10.89-12.26,21.79-13.62,32.69-17.7,19.06-16.34-10.89-2.73v-4.08L362.07,648.7,358,643.26Q352.28,653.39,346.57,663.55ZM315.77,780.8,318.49,744l5.45-6.81v-17.7L328,699.09l13.62-30,10.9-31.32-5.45-1.36-1.36-12.26,13.62-34,13.51-1.35L370.24,601l-2.72,8.17,9.53,9.53,32.68,10.9,2.73-1.36L437,633.72h1.36l15,2.73v-1.36l33.18,4.57-.49,3.6-30-2.73c5.44,24.52-5.45,38.13-5.45,38.13l-.34,3-2.38-.27-24.52,17.7-23.15,15-28.6,15-23.15,12.26L337.56,752.2l-4.09,15-2.72,8.17L329.39,789l4.08,23.15h4.09l-.28-4.33h.28l19.06,62.9,32.69-12.25,15-4.09v-4.08l19.06-2.73v1.36H452l21.79,1.37,18.6,8.85.38,25.27,0,2.6L486,880.22l-16.35-4.09L452,874.77H435.61l-5.45,1.36-1.36,1.36-20.43,4.09v-1.36h-2.72L385.22,887l-20.43,8.18,4.09,12.25L364,930.14h0l-.57-2.26L358,932l-8.17-5.44-4.08,4.08H329.39L309,865.24l-1.23-.41,3.95-37.73,11.77-4.29.49,1.57H328v-4.09l-7.45-25.52-2.08-7.16Z" transform="translate(-85.62 -3.2)"/><polygon class="cls-2" points="231.51 799.39 237.83 819.62 226.06 823.91 222.12 861.63 215.17 859.32 208.36 832.08 208.36 827.99 212.45 819.82 216.53 819.82 216.53 814.38 211.08 803.48 216.53 795.31 231.51 792.59 231.51 799.39"/><polygon class="cls-7" points="225.08 386.08 227.93 376.17 229.21 373.78 239.68 389.48 261.17 399.02 261.47 400.38 268.28 399.02 268.28 407.19 274.15 418.41 251.94 415.36 231.51 404.46 223.91 397.36 224.7 393.57 225.08 386.08"/><polygon class="cls-5" points="225.08 386.08 226.06 366.33 228.79 325.48 226.06 318.67 227.43 314.58 230.15 292.79 232.87 287.35 250.58 272.37 261.47 266.92 266.92 265.56 275.09 266.92 276.45 268.28 277.81 269.64 272.37 292.79 269.64 305.05 266.92 324.12 265.86 328.01 256.02 324.12 229.21 373.78 228.79 373.14 227.93 376.17 225.08 386.08"/><polygon class="cls-1" points="182.49 665.93 166.14 655.04 166.14 646.87 162.06 642.78 163.42 637.34 160.7 635.98 160.7 629.17 163.19 622.36 163.42 622.36 163.99 620.12 164.02 620.07 172.95 585.59 217.89 426.25 223.91 397.36 231.51 404.46 251.94 415.36 274.15 418.41 274.16 418.41 286.83 442.62 226.06 604.65 213.81 630.53 205.64 664.57 197.47 668.66 182.49 665.93"/><polygon class="cls-3" points="211.08 705.43 211.08 710.88 201.55 723.13 201.55 724.66 183.93 715 185.24 712.54 188.03 707.65 196.31 693.13 194.74 697.26 211.08 705.43"/><polygon class="cls-18" points="201.55 728.58 208.36 753.09 205.64 761.26 204.28 761.71 204.28 754.45 202.91 749.01 192.02 740.84 201.55 726.44 201.55 728.58"/><path class="cls-2" d="M287.17,727.85v1.79L277.64,744h-8.17l-4.09,5.45c-3.62-.91-7.26-1.83-10.89-2.72l15.06-28.56Z" transform="translate(-85.62 -3.2)"/><polygon class="cls-1" points="151.16 691.81 181.12 710.88 188.03 707.65 185.24 712.54 183.85 714.96 183.93 715 168.87 743.56 166.14 746.28 164.78 753.09 160.7 758.54 160.7 766.71 160.7 770.8 162.06 772.16 157.97 773.52 149.8 776.24 145.72 778.97 145.46 779.02 141.63 759.9 140.27 758.54 140.27 720.41 142.99 708.15 138.91 704.07 138.91 698.62 142.99 690.45 145.72 690.45 149.8 693.17 151.16 691.81"/><polygon class="cls-2" points="181.12 710.88 151.16 691.81 149.8 693.17 145.72 690.45 142.99 690.45 138.91 686.36 157.97 623.72 159.33 622.36 163.19 622.36 160.7 629.17 160.7 635.98 163.42 637.34 162.06 642.78 166.14 646.87 166.14 655.04 182.49 665.93 197.47 668.66 205.64 664.57 205.64 668.66 196.32 693.12 196.31 693.13 188.03 707.65 181.12 710.88"/><polygon class="cls-3" points="166.14 793.95 167.5 798.03 163.42 799.39 162.56 801.03 162.06 800.76 144.35 791.22 144.35 788.5 147.64 783.04 166.14 793.95"/><polygon class="cls-2" points="160.7 766.71 160.7 758.54 164.78 753.09 166.14 746.28 167.5 754.45 168.87 757.18 163.42 759.9 163.42 763.99 163.42 768.07 168.87 772.16 170.23 774.88 167.5 776.24 163.42 773.52 162.06 772.16 160.7 770.8 160.7 766.71"/><path class="cls-2" d="M248.18,804.23l-14.12,27H230l-4.08,4.08-1.37,9.54-5.44,6.81-2.73,2.72v10.9l-13.61,27.23-6.81,1.36L193.2,902l-1.36,6.81L185,917l-2.72,1.37v10.89l-13.62,27.24-5.45,1.36-2.72,1.36v9.53L151,981l-1.37,2.72,1.37,9.54-35.41,47.66h-30L130.56,981l6.81-1.36,1.36-2.72v-4.09l4.09-6.81,4.08-5.45,5.45-4.08L151,947l13.61-27.24,10.9-8.17v-5.45l1.36-6.81,6.81-5.45,2.72-8.17-2.72-2.72,15-27.24,5.45-4.08,2.72-4.09v-6.81l5.45-5.45,5.45-8.17-1.37-5.44L230,794.42,247.68,804Z" transform="translate(-85.62 -3.2)"/><path class="cls-4" d="M231.33,782.16l4.09-2.72,8.17-2.72,4.09-1.37,1.36,1.37,4.08,2.72,2.73-1.36-1.36-2.73L249,771.27V763.1l5.45-2.73-1.37-2.72-1.36-8.17,2.73-2.72c3.63.89,7.27,1.81,10.89,2.72l4.09-5.45h8.17l10.89,8.17,1.36,5.45v7.26l-2.72.91-1.36,4.09-1.36,1.36-1.37,4.08-5.44,1.37v8.17L274.91,789l-6.81,1.36-1.36,8.18L261.29,804l-8.17-2.72-1.36-4.09-18.51-10.9.81-1.35-2.73-1.36-.25-1.31Z" transform="translate(-85.62 -3.2)"/><path class="cls-19" d="M491.44,1040.91q.71-75.59,1.37-151.16l-.05-2.77,0-2.6-.38-25.27,0-2.06-.88-58.54-4.08-28.6" transform="translate(-85.62 -3.2)"/><path class="cls-20" d="M462.17,646.66,478.51,648s-6.81,4.08-5.44,28.6l-15-1.37S466.26,664.36,462.17,646.66Z" transform="translate(-85.62 -3.2)"/><line class="cls-19" x1="394.26" y1="381.31" x2="394.26" y2="635.55"/></svg>