<svg id="Camada_1" data-name="Camada 1" xmlns="http://www.w3.org/2000/svg" viewBox="0 0 429.33 1037.81"><defs><style>.cls-1,.cls-17{fill:#cc866e;}.cls-2{fill:#1d0d0e;}.cls-3{fill:#1b0d11;}.cls-4{fill:#04060a;}.cls-5{fill:#351a1a;}.cls-6{fill:#3c242c;}.cls-7{fill:#5b6473;}.cls-18,.cls-8{fill:#431a28;}.cls-9{fill:#9b533c;}.cls-10{fill:#c07c63;}.cls-11{fill:#4c4c3f;}.cls-12{fill:#e9eae5;}.cls-13{fill:#3c0b00;}.cls-14{fill:#6d3431;}.cls-15{fill:#68312a;}.cls-16{fill:#351820;}.cls-17{stroke:#cc866e;}.cls-17,.cls-18{stroke-miterlimit:10;}.cls-18{stroke:#431a28;}</style></defs><title>wanda</title><path class="cls-1" d="M696.81,767.32l-.13.31-2.55,5.08a2.3,2.3,0,0,0-.23,1v3.64a2.34,2.34,0,0,1-1.6,2.22l-6.75,2.25a2.44,2.44,0,0,0-.84.49l-16.59,15.27L663,801.13l-2.91-.73a3.22,3.22,0,0,1-2.38-3.75l.88-4.34v-2.94h-1.47l-6.56,1.31a2.38,2.38,0,0,1-1.53-.2,4,4,0,0,1-2.2-3.59v-2.26a3.61,3.61,0,0,1,2.47-3.44l1.94-.64,5.88-1.47,2.94-1.47,1.47-1.47L666,773.2l.29-1.16,11.47-6.19Z" transform="translate(-273.66 -1.46)"/><path class="cls-1" d="M666.26,772,666,773.2l-4.41,2.94-2.19-.55a7.49,7.49,0,0,1-5.12-4.46l-.63-1.57a12.59,12.59,0,0,1-.88-4.65V751.16l0-.12,16.19-1.35v11.75Z" transform="translate(-273.66 -1.46)"/><path class="cls-2" d="M619.36,576.23q2.79,7.89,5.55,15.8l.88,3.44,6.37,24.86.62,3.11L635.1,635l4.41,13.23,4.41,13.23,2.94,13.23,1.47,16.17q1.45,5.86,2.94,11.76l.35.08-.35,1.39-2.94,11.76,1.47,13.23,1.47,22,1.45-.12,0,.12v13.75a12.59,12.59,0,0,0,.88,4.65l.63,1.57a7.49,7.49,0,0,0,5.12,4.46l2.19.55-1.47,1.47-2.94,1.47-5.88,1.47-1.94.64a3.61,3.61,0,0,0-2.47,3.44v2.26a4,4,0,0,0,2.2,3.59,2.38,2.38,0,0,0,1.53.2l6.56-1.31h1.47v2.94l-.88,4.34a3.22,3.22,0,0,0,2.38,3.75l2.91.73,5.09-3.51-.55.5a2.32,2.32,0,0,0-.73,2q13.38,118.3,26.77,236.58a2.35,2.35,0,0,1-2.33,2.6H605.05l3.15-138.12.34-14.86,3-133.66-.5-18.73-.41-15.08-2-75-11.32-38.21h0l1-1.47,19.35-32.67Z" transform="translate(-273.66 -1.46)"/><path class="cls-1" d="M639.69,271l5.7,15.68,8.7,27.58a2.15,2.15,0,0,1,.12.7v37.87l2.85,79.91a120,120,0,0,0-64.91,9.76l-4.09-36.75v-1.47l11.76-48.51,4.41,1.26,5.88,1.68L616,366l8.82,13.23,4.41,7.35h2.94v-7.35l-7.35-11.76V357.2l7.35-5.88,4.41,4.41,4.41,5.88,5.88,4.41v-7.35l-7.35-7.35-4.41-8.82-5.88-5.88,10.29,5.88,7.35,4.41-1.47-13.23L646.86,316,636,267l3.13,3.13A2.35,2.35,0,0,1,639.69,271Z" transform="translate(-273.66 -1.46)"/><path class="cls-3" d="M626.28,595.34l-.49.13-.88-3.44q-2.74-7.92-5.55-15.8h2.51V565a.15.15,0,0,0-.28-.08l-.09.16q-7.18-22.35-14.33-44.71c-1-3.93-2-7.85-2.94-11.76l-11.76-58.8V445.4l-.32-2.94a120,120,0,0,1,64.91-9.76l.07,2.17a2.42,2.42,0,0,0,.06.46q8.77,36.5,17.53,73a2.5,2.5,0,0,1,.07.54v14.51l10.26,155.47a2.06,2.06,0,0,0,.1.53l5.71,18.52a2.59,2.59,0,0,1,.1.67v8a2.32,2.32,0,0,0,.18.89l10,24.34a3.29,3.29,0,0,0,.21.42l.92,1.38a4.14,4.14,0,0,1-.51,5.23,2.28,2.28,0,0,0-.65,1.28L696.88,767a2.09,2.09,0,0,1-.07.36l-19.08-1.47L676.26,760h-4.41l-2.94,1.46V749.69L652.72,751l-1.45.12-1.47-22-1.47-13.23,2.94-11.76.35-1.39,1.12-4.49-1.47-11.76-1.47-17.64L648.33,663,635.1,627.68l-1.47-4.41v-7.35l-2.94-13.23Z" transform="translate(-273.66 -1.46)"/><polygon class="cls-4" points="337.42 732.44 337.92 751.16 334.88 884.83 292.12 839.48 292.12 839.47 294.81 708.05 337.41 732.44 337.42 732.44"/><polygon class="cls-4" points="334.98 642.39 337.01 717.36 291.25 694.05 291.25 651 323.66 604.18 334.98 642.39"/><polygon class="cls-4" points="289.44 852.74 334.54 899.69 331.39 1037.81 294.81 1037.81 289.44 852.74"/><polygon class="cls-5" points="321.75 345.45 330.57 355.52 330.57 355.53 326.16 354.27 314.4 402.78 314.4 404.25 302.64 458.64 302.64 473.34 290.88 483.63 282.06 493.92 273.24 514.5 265.89 523.32 242.37 533.61 228.47 533.91 232.08 414.54 240.9 361.62 257.07 314.58 276.18 286.65 288.74 273.61 288.75 273.61 290.88 279.3 298.23 286.65 308.52 298.41 317.34 308.7 314.4 321.93 317.34 333.69 321.75 345.45"/><polygon class="cls-6" points="289.44 852.74 294.81 1037.81 285.5 1037.81 283.22 853.61 286.47 849.65 289.44 852.74"/><polygon class="cls-6" points="294.81 708.05 292.12 839.47 288.28 835.41 288.28 835.39 289.44 704.98 294.81 708.05"/><polygon class="cls-6" points="291.25 651 291.25 694.05 287.94 692.37 285.21 694.75 285.21 659.73 285.21 659.72 291.25 651"/><polygon class="cls-4" points="289.44 704.98 288.28 835.39 286.47 833.48 285.21 835.04 285.5 706.42 287.94 704.13 289.44 704.98"/><polygon class="cls-7" points="288.28 835.41 292.12 839.47 292.12 839.48 334.88 884.83 334.54 899.69 289.44 852.74 286.47 849.65 283.22 853.61 239.98 906.35 238.3 893.03 280.78 840.52 285.21 835.04 286.47 833.48 288.28 835.39 288.28 835.41"/><polygon class="cls-4" points="283.22 853.61 285.5 1037.81 256.56 1037.81 239.98 906.35 283.22 853.61"/><polygon class="cls-6" points="285.5 706.42 285.21 835.04 280.78 840.52 280.77 840.51 280.77 710.87 280.77 710.86 285.5 706.42"/><path class="cls-1" d="M546.9,133.76l2.94,5.88L548.37,147,541,148.46q-.76,8.34-1.53,16.69l-6.79,13.58-5.2,4.67L516,193.75,507.62,197H493a9.59,9.59,0,0,1-3.84-.81l-21.44-9.39c-3.68-4-7-7.64-10.5-11.48q-1.8-2-3.72-4.07l-5.13-15.41H444l-7.35,2.94-2.94-2.94V139.64l-1.62-1.88,5.16-6.23.87,3.7,16.17,14.7-4.41-7.35-7.35-29.4-.92-13a71.18,71.18,0,0,0,14.78-28.73h0l14.07-2.34,11.76,4.41L491,80.84V75h7.35l1.47,5.88,7.35-11.76,5.88-5.88,4.41-1.47h5.69a32.33,32.33,0,0,0,16.88,11.84l.95,2.86L544,91.13v35.28L541,138.17Zm-11.76-32.34L533.67,97l-4.41-4.41-4.41-1.47h-2.94L502.8,97l4.41,2.94,4.41-1.47L516,97l7.35-1.47L529.26,97Zm-7.35,11.86,4.41-4.16L523.32,107l-1.61-.39a3.81,3.81,0,0,0-2.45.25l-3.48,1.65a2.83,2.83,0,0,0-1.56,1.84l-1.13,4.28a32.57,32.57,0,0,0,8.82,0l.12,0a4.9,4.9,0,0,0,1.45-.25A31.46,31.46,0,0,0,527.79,113.28Zm-16.17,60.17,8.82-8.82L516,161.69l-4.41-2.94-4.41-1.47-4.41,1.47h-5.88l-4.41,1.47-5.88,4.41-4.41,1.47-1.47,1.47a1.44,1.44,0,0,0,1.47,1.47c1.47,0,10.29,5.88,10.29,5.88h13.23Zm-2.94-31.6a2.21,2.21,0,1,0-2.2,2.2A2.22,2.22,0,0,0,508.68,141.85Zm-23.52-39,1.47-4.41L477.81,97h-7.35l-8.82,1.47-4.41,2.94-5.88,7.35,4.41-2.94a28.28,28.28,0,0,1,17.64-2.94Zm-5.25,15.85,5.25-2.62-4.41-2.94-2.94-1.47a10.72,10.72,0,0,0-2.94,0,7.94,7.94,0,0,0-3.07.62h0l-4.24.84-5.88,2.94,3.51,2.34a3.48,3.48,0,0,0,2,.6h11.45A3.12,3.12,0,0,0,479.91,118.74Z" transform="translate(-273.66 -1.46)"/><polygon class="cls-8" points="276.18 113.19 273.24 132.3 267.36 136.71 270.3 124.95 270.3 116.13 270.3 101.43 270.3 89.67 274.27 89.35 276.18 113.19"/><path class="cls-9" d="M538.08,67.61l2,6a32.33,32.33,0,0,1-16.88-11.84h9Z" transform="translate(-273.66 -1.46)"/><path class="cls-9" d="M546.9,133.76l2.94-19.11-1.91-23.84-1-12.91L544,55.85l-7.35-16.17Q535,29.54,533.41,19.4l3,8a2.31,2.31,0,0,0,.53.84l5.1,6.17,1.9,3.76,13.23,4.41q2.94,7.41,5.88,14.85a2.36,2.36,0,0,0,1.13,2l5.56,3.34a2.27,2.27,0,0,1,1,1.08L591,111.61c0,.06,0,.13.08.19l20.39,37.87a2.52,2.52,0,0,1,.21.54l3.61,14.47a2.31,2.31,0,0,1-2.24,2.89h-.09a2.33,2.33,0,0,0-2,3.59c4.52,7,9,13.93,13.53,20.9a2.39,2.39,0,0,1,.36,1.07q2.89,33.83,5.77,67.67a2.26,2.26,0,0,0,.67,1.44L636,267,646.86,316l-1.47,17.64,1.47,13.23-7.35-4.41-10.29-5.88,5.88,5.88,4.41,8.82,7.35,7.35V366L641,361.61l-4.41-5.88-4.41-4.41-7.35,5.88v10.29l7.35,11.76v7.35h-2.94l-4.41-7.35L616,366l-5.88-7.35L604.23,357h0l-8.82-10.07L591,335.15l-2.94-11.76L591,310.16l-8.82-10.29-10.29-11.76-7.35-7.35-2.13-5.69L560.13,269l-10.29-13.23L542.49,244l-2.94-10.29,2.94-13.23-4.41-2.94-2.19-2.19-3.69-3.69-4.41-13.23.41-14.26-.7-.78,5.2-4.67,6.79-13.58q.78-8.34,1.53-16.69l7.35-1.47,1.47-7.35Z" transform="translate(-273.66 -1.46)"/><polygon class="cls-10" points="262.95 233.73 262.95 238.14 257.07 242.55 254.13 238.14 262.95 233.73"/><path class="cls-10" d="M535.89,215.36l-6.63,9.54-17.64,10.29-32.34,2.94-26.46-8.82-9.1-4.54-1.19-13.1,2.94-2.94,5.88-7.35,2.94-11.76,2.1-13.54.87-.79c3.5,3.84,6.82,7.47,10.5,11.48l21.44,9.39A9.59,9.59,0,0,0,493,197h14.58l8.38-3.22,11.5-10.35.7.78-.41,14.26,4.41,13.23Z" transform="translate(-273.66 -1.46)"/><path class="cls-11" d="M523.22,107.46a3.84,3.84,0,0,1,3.1,3.52,3.77,3.77,0,0,1-2.84,3.42c-.47.09-1,.18-1.45.25h-.12c-2.44,0-4.41-1.64-4.41-3.67s2-3.68,4.41-3.68A5.53,5.53,0,0,1,523.22,107.46Z" transform="translate(-273.66 -1.46)"/><path class="cls-12" d="M523.32,107l8.88,2.08-4.41,4.16a31.46,31.46,0,0,1-4.31,1.12,3.77,3.77,0,0,0,2.84-3.42,3.84,3.84,0,0,0-3.1-3.52Z" transform="translate(-273.66 -1.46)"/><polygon class="cls-10" points="251.19 246.96 229.14 254.31 226.2 246.96 242.37 242.55 251.19 246.96"/><polygon class="cls-4" points="238.3 893.03 222.26 765.86 280.77 710.87 280.77 840.51 280.78 840.52 238.3 893.03"/><path class="cls-12" d="M521.91,114.67a32.57,32.57,0,0,1-8.82,0l1.13-4.28a2.83,2.83,0,0,1,1.56-1.84l3.48-1.65a3.81,3.81,0,0,1,2.45-.25l1.61.39-.1.42a5.53,5.53,0,0,0-1.31-.16c-2.44,0-4.41,1.63-4.41,3.68s2,3.67,4.41,3.67H522Z" transform="translate(-273.66 -1.46)"/><polygon class="cls-9" points="249.72 94.08 242.37 95.55 237.96 97.02 233.55 98.49 229.14 95.55 248.25 89.67 251.19 89.67 255.6 91.14 260.01 95.55 261.48 99.96 255.6 95.55 249.72 94.08"/><polygon class="cls-7" points="280.77 710.87 222.26 765.86 220.41 751.27 285.21 694.75 287.94 692.37 291.25 694.05 337.01 717.36 337.42 732.44 337.41 732.44 294.81 708.05 289.44 704.98 287.94 704.13 285.5 706.42 280.77 710.86 280.77 710.87"/><circle class="cls-13" cx="232.82" cy="140.39" r="2.2"/><polygon points="256.56 1037.81 178.5 1037.81 188.56 928.86 189.41 919.71 202.61 776.86 203.92 762.64 211.5 680.61 220.41 751.27 222.26 765.86 238.3 893.03 239.98 906.35 256.56 1037.81"/><polygon class="cls-10" points="220.32 242.55 214.44 252.84 208.56 251.37 205.62 242.55 220.32 242.55"/><path class="cls-14" d="M482.22,166.1l4.41-1.47,5.88-4.41,4.41-1.47h5.88l4.41-1.47,4.41,1.47,4.41,2.94,4.41,2.94-8.82,8.82-5.88,1.47H492.51S483.69,169,482.22,169a1.44,1.44,0,0,1-1.47-1.47Z" transform="translate(-273.66 -1.46)"/><path class="cls-11" d="M479.28,115.39c0,2-2.31,3.67-5.14,3.67s-5.15-1.64-5.15-3.67c0-1.28,1.18-2.4,2.77-3h0l3.07-.62C477.71,111.71,479.28,113.34,479.28,115.39Z" transform="translate(-273.66 -1.46)"/><path class="cls-12" d="M474.87,111.71a10.72,10.72,0,0,1,2.94,0l2.94,1.47,4.41,2.94-5.25,2.62a3.12,3.12,0,0,1-1.35.32h-4.42c2.83,0,5.14-1.64,5.14-3.67S477.71,111.71,474.87,111.71Z" transform="translate(-273.66 -1.46)"/><polygon class="cls-10" points="198.27 246.96 198.27 254.31 173.28 248.43 185.04 242.55 198.27 246.96"/><path class="cls-12" d="M469,115.39c0,2,2.29,3.67,5.15,3.67h-7a3.48,3.48,0,0,1-2-.6l-3.51-2.34,5.88-2.94,4.24-.84C470.17,113,469,114.11,469,115.39Z" transform="translate(-273.66 -1.46)"/><path class="cls-8" d="M536.61,235.19l-8.82,4.41,2.94,4.41,5.88-4.41ZM460.17,418.94l-7.35-61.74-11.76-30.87-34.34-57.05.53-1.75,10.29-7.35,10.29-8.82,14.7-10.29L444,227.84l-.28-3.07,9.1,4.54,26.46,8.82,32.34-2.94,17.64-10.29,6.63-9.54,2.19,2.19,4.41,2.94-2.94,13.23L542.49,244l7.35,11.76L560.13,269l2.28,6.07h0l-12.55,13L530.73,316l-16.17,47L505.74,416l-3.62,119.38-36.39.8ZM502.8,255.77l22.05-7.35L516,244l-16.17,4.41Zm-14.7-1.47L494,244h-14.7l2.94,8.82Zm-16.17,1.47v-7.35L458.7,244l-11.76,5.88Z" transform="translate(-273.66 -1.46)"/><path class="cls-9" d="M457.23,101.42l4.41-2.94L470.46,97h7.35l8.82,1.47-1.47,4.41H473.4a28.28,28.28,0,0,0-17.64,2.94l-4.41,2.94Z" transform="translate(-273.66 -1.46)"/><path class="cls-15" d="M452.82,72l3.57-.59a71.18,71.18,0,0,1-14.78,28.73l-.55-7.56,1.47-10.29Z" transform="translate(-273.66 -1.46)"/><polygon class="cls-15" points="156.83 101.28 163.6 130.07 158.44 136.3 151.23 127.89 151.23 110.25 156.83 101.28"/><path class="cls-9" d="M438.25,31.39,448,23.85a2.3,2.3,0,0,1,1-.44l15.29-2.78a1.94,1.94,0,0,1,.64,0L479.16,22H498.1a2.78,2.78,0,0,0,.57-.07l10.82-2.71a2.35,2.35,0,0,1,1.29,0L524.72,24a2.34,2.34,0,0,0,3.07-2.2V17.63c-.07-.94-.13-1.82-.19-2.66.56,5.79,1.1,11.57,1.66,17.36l-4.41,1.47H517.5l-2.94,2.94-7.35,4.41L499.86,47,488.1,50,479.28,47l-14.7-4.41-11.76-4.41c-3.44,1-6.86,2-10.29,2.94l-7.33-9.93,1.63.67A2.24,2.24,0,0,0,438.25,31.39Z" transform="translate(-273.66 -1.46)"/><path class="cls-8" d="M435.2,31.22l7.33,9.93c3.43-1,6.85-2,10.29-2.94l11.76,4.41L479.28,47,488.1,50,499.86,47l7.35-5.88,7.35-4.41,2.94-2.94h7.35l4.41-1.47c-.56-5.79-1.1-11.57-1.66-17.36,0-.07,0-.14,0-.22-.65-9.95-.4-13.2.2-13.29s1.94,3.44,4.5,15l1.12,3q1.61,10.14,3.2,20.28L544,55.85,546.9,77.9l1,12.91-4,.32L541,76.43l-.95-2.86-2-6-5.88-5.88H517.5l-4.41,1.47-5.88,5.88-7.35,11.76L498.39,75H491v5.88l-8.82-7.35-11.76-4.41-14.07,2.34h0l-3.57.59L442.53,82.31,441.06,92.6l.55,7.56.92,13,7.35,29.4,4.41,7.35-16.17-14.7-.87-3.7-6.76-28.79,1.75-2.79-4.41-11.76L424.89,75l4.41-8.82,2.4-46.74-.34,0c.28-1.09.57-1.75.88-1.75,1,0,1.8,6.82,2.29,12.31A2.34,2.34,0,0,0,435.2,31.22Z" transform="translate(-273.66 -1.46)"/><path class="cls-4" d="M453.34,898.51l-36.59-42.69-2.54-131.18,62,53.68h0l-13.2,142.85L454.84,901A8.92,8.92,0,0,0,453.34,898.51Z" transform="translate(-273.66 -1.46)"/><path class="cls-4" d="M452.16,1039.27h-39L412.53,867l35.25,39.32a9.56,9.56,0,0,1,1.1,1.51l13.33,22.54Z" transform="translate(-273.66 -1.46)"/><polygon class="cls-4" points="203.92 762.64 133.87 704.13 133.87 704.11 133.87 662.08 151.23 685.01 154.17 682.08 158.58 605.64 179.16 543.9 237.96 542.43 258.54 588 268.83 676.2 270.3 679.13 271.77 679.13 285.21 659.73 285.21 694.75 220.41 751.27 211.5 680.61 203.92 762.64"/><polygon class="cls-6" points="140.55 723.18 143.09 854.36 137.74 848.11 134.55 717.99 140.55 723.16 140.55 723.18"/><polygon class="cls-6" points="138.87 865.49 139.47 1037.81 132.96 1037.81 132.96 866.21 132.96 866.19 136.53 862.88 138.87 865.49"/><polygon class="cls-4" points="134.55 717.99 137.74 848.11 136.53 846.71 134.56 848.7 134.55 848.68 130.11 717.11 132.12 715.88 134.55 717.99"/><polygon class="cls-6" points="128.98 655.62 133.87 662.08 133.87 704.11 132.12 702.65 128.54 704.76 128.52 704.74 128.98 655.62"/><polygon class="cls-6" points="130.51 852.74 124.55 720.47 130.11 717.11 134.55 848.68 134.56 848.7 130.51 852.74"/><path class="cls-16" d="M350.41,580.15l12.74-31.85,4.41-11.76,17.64-26.46,1.47-5.88,2.94-8.82V491l4.41-8.82.41-2.09,17.23,19.73,11.76,22.05,26.46,14.7,15.85-.36,36.39-.8,13.91-.31,23.52-10.29L546.9,516l8.82-20.58,8.82-10.29L576.3,474.8l4.41,11.76,4.41,8.82,1.47,7.35,1.47,4.41,22.05,25c-1-3.93-2-7.85-2.94-11.76q7.17,22.35,14.33,44.71l-3.8,6.41-19.35,32.67-1,1.47h0l-32.41,46.82-6,8.72h0L545.43,680.6H544l-1.47-2.94-10.29-88.2-20.58-45.57-58.8,1.47L432.24,607.1l-4.41,76.44-2.94,2.94-17.36-22.94-4.89-6.46-26.35-34.83-25.54-33.76-.05-.06L349,585.86Z" transform="translate(-273.66 -1.46)"/><path class="cls-7" d="M406.62,867.67l-37.46,34.78-.26-12.91,35.27-35.34,4.05-4,2-2,1.21,1.4,5.35,6.25,36.59,42.69a8.92,8.92,0,0,1,1.5,2.45l8.23,20.21-.86,9.15-13.33-22.54a9.56,9.56,0,0,0-1.1-1.51L412.53,867l-2.34-2.61-3.57,3.31Z" transform="translate(-273.66 -1.46)"/><polygon class="cls-4" points="93.9 739.05 124.55 720.47 130.51 852.74 95.24 888.08 93.9 823.19 93.9 739.05"/><polygon class="cls-7" points="93.9 725 128.54 704.76 132.12 702.65 133.87 704.11 133.87 704.13 203.92 762.64 202.61 776.86 202.59 776.86 140.55 723.18 140.55 723.16 134.55 717.99 132.12 715.88 130.11 717.11 124.55 720.47 93.9 739.05 93.9 725"/><polygon class="cls-4" points="128.54 704.76 93.9 725 93.9 674.73 102.64 620.79 128.98 655.62 128.52 704.74 128.54 704.76"/><polygon class="cls-4" points="132.96 1037.81 98.31 1037.81 95.51 900.99 132.96 866.21 132.96 1037.81"/><polygon class="cls-5" points="92.58 345.4 129.18 280.77 133.06 267.82 167.4 324.87 179.16 355.74 186.51 417.48 192.07 534.72 176.22 535.08 149.76 520.38 138 498.33 120.78 478.6 121.83 473.34 121.83 464.52 110.07 420.42 98.31 352.8 95.37 345.45 95.37 342.51 92.58 345.4"/><path class="cls-10" d="M352.86,442.46a98.46,98.46,0,0,0-30.87,0l-.1,0a2,2,0,0,0,.1-.66V341.25a2.4,2.4,0,0,1,.05-.46L330.8,297a.45.45,0,0,1,0-.16l4.26-15.62a2.57,2.57,0,0,1,.43-.84l11-13.79a2.24,2.24,0,0,1,1.09-.75l3.23-1.09a2.21,2.21,0,0,0,.91-.56l6.69-6.69a2.16,2.16,0,0,0,.44-.6l2.65-5.29a2.17,2.17,0,0,0,.19-.54c.77-3.5,1.87-6.75,2.21-10l2.14,7.38v8.82l-2.94,13.23-5.88,14.7-5.88,19.11-11.76,16.17-8.82,5.88,1.47,1.47,8.82-4.41,7.35-10.29,8.82-11.76v19.11l-4.41,10.29,7.35,8.82-29.4,41.16,1.47,1.47,34-35.32L369,344v2.94l2.94,7.35,11.76,67.62a86.49,86.49,0,0,1,0,14.7,87.45,87.45,0,0,1-2.57,14.8l-.37-.1A98.63,98.63,0,0,0,352.86,442.46Z" transform="translate(-273.66 -1.46)"/><path class="cls-9" d="M339.63,320.45l11.76-16.17,5.88-19.11,5.88-14.7,2.94-13.23v-8.82L364,241l-2.8-9.67,4.94-30,7.35-16.17L376.38,172v-22l2.94-16.17L383.73,122l5.88-13.23,5.82-18.2h0L397,87.77V81.18a2.54,2.54,0,0,1,.09-.68l4.28-14.21a2,2,0,0,1,.1-.29l6.94-15.28a2.39,2.39,0,0,1,1.09-1.13l13.4-6.7a2.36,2.36,0,0,0,.9-.78l5.26-7.9a2.48,2.48,0,0,0,.36-.91l.55-3.36a86.47,86.47,0,0,1,1.43-10.56l.34,0-2.4,46.74L424.89,75l2.94,13.23L432.24,100l-1.75,2.79-5.6,9v17.64l7.2,8.41,1.62,1.88v16.17l2.94,2.94,7.35-2.94h4.41l5.13,15.41q1.92,2.09,3.72,4.07l-.87.79-2.1,13.54-2.94,11.76-5.88,7.35-2.94,2.94,1.19,13.1.28,3.07-1.47,13.23-14.7,10.29-10.29,8.82-10.29,7.35-.53,1.75-3.88,13-36.6,64.64-34,35.32-1.47-1.47,29.4-41.16-7.35-8.82,4.41-10.29V301.34l-8.82,11.76-7.35,10.29-8.82,4.41-1.47-1.47Z" transform="translate(-273.66 -1.46)"/><path class="cls-2" d="M372,1039.27H284.92a2.33,2.33,0,0,1-2.32-2.6q14.4-123,28.76-246a2.29,2.29,0,0,0-1.35-2.4l.22-.37L322.45,783a4,4,0,0,0,2.48-3.66v-.27l3.59-1.8a4.13,4.13,0,0,0,2.29-3.71v-1.84l-1.47-2.94,3.34-1.67c-.19-2.75-.21-2.94-.4-5.68l-2.7-.91a4.41,4.41,0,0,0-3.34.25l-1.31.66-1-.13a2,2,0,0,0-3.4,1.37v3.17c-.63.28-1.26.56-1.89.86l-.05,0a8.7,8.7,0,0,0,.61-2.51q.66-8,1.33-16l0-.12,1.45.12,2.94-16.17v-1.47l8.82-52.92,2.94-20.58.21,0q3.56-25.74,7.14-51.48l4.41-1.47,2.94-14.7-.64-1,25.54,33.76-8.73,53.94V824.65l1.34,64.89.26,12.91Z" transform="translate(-273.66 -1.46)"/><path class="cls-10" d="M307.13,769.57l-1.56-2.08a4.85,4.85,0,0,1-.39-.61,7.12,7.12,0,0,1-1-3.08l-1.31-17,17.66,1.35,0,.12q-.67,8-1.33,16a8.7,8.7,0,0,1-.61,2.51,4.11,4.11,0,0,1-.28.65l-.79,1.59a5.08,5.08,0,0,1-4.53,2.8h-1.53A5.43,5.43,0,0,1,307.13,769.57Z" transform="translate(-273.66 -1.46)"/><path class="cls-10" d="M302.88,768.79l2.3-1.91a4.85,4.85,0,0,0,.39.61l1.56,2.08a5.43,5.43,0,0,0,4.32,2.16H313a5.08,5.08,0,0,0,4.53-2.8l.79-1.59a4.11,4.11,0,0,0,.28-.65l.05,0c.63-.3,1.26-.58,1.89-.86v-3.17a2,2,0,0,1,3.4-1.37l1,.13,1.31-.66a4.41,4.41,0,0,1,3.34-.25l2.7.91c.19,2.74.21,2.93.4,5.68l-3.34,1.67,1.47,2.94v1.84a4.13,4.13,0,0,1-2.29,3.71l-3.59,1.8v.27a4,4,0,0,1-2.48,3.66l-12.22,4.89-.22.37a2.6,2.6,0,0,0-1.06-.19A88.33,88.33,0,0,1,297,787.9c-2.92-.25-5.66-.61-8.17-1.07a4,4,0,0,1-3-2.31c-1.37-3.08-2.73-6.16-4.12-9.24v0l1.47-3.61a3.28,3.28,0,0,1,2-1.87,17.34,17.34,0,0,1,7.41-2.46,16,16,0,0,1,2.94,0,2.21,2.21,0,0,1,1.47,1.47l1.47,1.47h1.47Z" transform="translate(-273.66 -1.46)"/><path class="cls-3" d="M280.79,773l-6.89-23.4a5.85,5.85,0,0,1-.11-2.88l7-32.27a.63.63,0,0,0,0-.19l14.7-108.67,4.4-47a.57.57,0,0,1,0-.18l19-111.15a2.32,2.32,0,0,1,.36-.89L321.6,443a2.34,2.34,0,0,0,.29-.62l.1,0a98.72,98.72,0,0,1,58.8,8.82l.37.1c-.12.47-.25.93-.37,1.37l1.47,1.47v7.35l-2.94,13.23-2.94,23.52L372,516l-5.88,14.7-2.94,13.23v4.41l-12.74,31.85-2,4.9.53.81L344,605.63,322,657.08l-1.47,10.29v32.34l4.41,30.87v1.47L322,748.22l-1.45-.12-17.66-1.35,1.31,17a7.12,7.12,0,0,0,1,3.08l-2.3,1.91-2.94,1.47h-1.47L297,768.79a2.21,2.21,0,0,0-1.47-1.47,16,16,0,0,0-2.94,0,17.34,17.34,0,0,0-7.41,2.46,3.28,3.28,0,0,0-2,1.87l-1.47,3.61c-.27-.64-.57-1.28-.85-1.92A2.11,2.11,0,0,1,280.79,773Z" transform="translate(-273.66 -1.46)"/><path class="cls-12" d="M490.3,166.83l2.94,1.47H505l8.08-2.21a14.5,14.5,0,0,0-1.67-1.23,13.86,13.86,0,0,0-4.21-1.71h-7.34L494,164.62" transform="translate(-273.66 -1.46)"/><circle class="cls-13" cx="220.32" cy="141.11" r="2.2"/><path class="cls-17" d="M532.19,105.82l-19.11,1.47" transform="translate(-273.66 -1.46)"/><path class="cls-18" d="M432.24,19.1,429.3,36.74l1.47,17.64Z" transform="translate(-273.66 -1.46)"/><path class="cls-18" d="M529.25,10.28l5.88,29.4V26.45Z" transform="translate(-273.66 -1.46)"/><polygon class="cls-18" points="251.19 33.8 255.6 20.57 257.07 33.8 251.19 33.8"/></svg>